<?xml version="1.0" standalone="no"?>
<!DOCTYPE svg PUBLIC "-//W3C//DTD SVG 20010904//EN"
 "http://www.w3.org/TR/2001/REC-SVG-20010904/DTD/svg10.dtd">
<svg version="1.0" xmlns="http://www.w3.org/2000/svg"
 width="1300.000000pt" height="1300.000000pt" viewBox="0 0 1300.000000 1300.000000"
 preserveAspectRatio="xMidYMid meet">
<metadata>
Created by potrace 1.11, written by Peter Selinger 2001-2013
</metadata>
<g transform="translate(0.000000,1300.000000) scale(0.100000,-0.100000)"
fill="#000000" stroke="none">
<path d="M7079 12996 c-2 -2 -56 -6 -119 -10 -63 -3 -131 -8 -150 -10 -19 -3
-62 -7 -95 -10 -125 -12 -377 -47 -441 -61 -12 -3 -39 -7 -60 -11 -71 -10
-397 -83 -489 -109 -49 -14 -99 -27 -110 -29 -24 -6 -119 -34 -235 -71 -93
-30 -411 -147 -475 -175 -22 -9 -69 -30 -105 -45 -497 -212 -1063 -553 -1481
-894 -31 -25 -67 -55 -81 -66 -161 -128 -550 -503 -693 -669 -33 -38 -67 -76
-76 -85 -25 -25 -220 -271 -297 -374 -132 -178 -330 -475 -364 -547 -7 -14
-19 -36 -29 -50 -9 -14 -30 -50 -46 -80 -17 -30 -45 -82 -63 -115 -234 -422
-483 -1072 -585 -1525 -69 -307 -99 -457 -120 -615 -1 -11 -5 -42 -9 -70 -12
-84 -15 -107 -21 -185 -4 -41 -8 -80 -10 -87 -26 -82 -26 -969 0 -1168 2 -16
7 -57 10 -90 5 -52 17 -155 31 -260 2 -16 13 -79 24 -140 10 -60 21 -123 24
-140 25 -145 109 -490 156 -641 126 -404 246 -704 417 -1044 51 -102 99 -196
107 -210 52 -88 162 -278 172 -295 13 -25 186 -288 194 -295 3 -3 25 -34 50
-70 256 -372 725 -880 1095 -1185 33 -28 65 -54 71 -60 6 -5 25 -21 43 -35 18
-14 38 -30 44 -35 10 -9 172 -130 285 -213 69 -51 271 -181 382 -247 63 -38
126 -76 140 -84 68 -42 359 -190 585 -296 224 -105 815 -310 1010 -350 11 -2
38 -9 60 -15 134 -34 427 -94 505 -104 19 -3 49 -7 65 -10 89 -14 122 -19 145
-21 69 -6 145 -17 152 -21 4 -3 8 1 8 8 0 9 2 10 8 1 4 -6 49 -14 107 -18 55
-3 143 -9 195 -13 52 -3 219 -6 370 -7 246 0 354 4 500 20 43 5 62 7 160 20
60 8 285 49 330 60 21 5 80 16 82 15 2 -1 15 3 31 9 15 6 39 13 54 15 43 8
247 67 265 77 10 5 22 9 28 9 6 0 68 21 138 46 728 264 1379 702 1899 1279 39
44 82 94 94 110 13 17 26 32 29 35 14 13 94 113 149 188 419 565 693 1177 836
1867 19 89 19 90 35 195 6 41 13 86 16 100 2 14 6 50 9 80 3 30 7 69 10 85 27
187 27 698 0 950 -2 17 -6 57 -10 90 -46 423 -308 801 -693 995 -444 225
-1009 158 -1387 -164 -109 -93 -176 -169 -249 -284 -41 -62 -63 -105 -117
-227 -15 -34 -56 -188 -63 -235 -4 -25 -13 -94 -21 -155 -77 -577 -283 -1087
-623 -1545 -47 -63 -90 -120 -96 -126 -6 -6 -36 -40 -66 -75 -62 -72 -198
-209 -281 -284 -217 -195 -501 -385 -754 -504 -38 -18 -77 -36 -86 -41 -58
-30 -341 -136 -419 -155 -8 -3 -58 -15 -110 -29 -52 -14 -133 -32 -180 -40
-47 -9 -98 -18 -115 -21 -16 -3 -52 -8 -80 -11 -27 -2 -59 -6 -70 -9 -111 -23
-604 -23 -722 -1 -12 3 -48 7 -80 11 -47 5 -199 33 -328 60 -73 16 -261 74
-375 117 -330 123 -625 292 -914 522 -103 82 -355 327 -437 426 -452 543 -711
1175 -765 1870 -13 170 -7 504 11 623 2 12 6 45 10 72 32 254 132 610 237 844
16 36 34 77 40 91 6 14 14 32 19 40 5 8 16 31 26 50 9 19 24 46 33 60 144 219
195 296 200 300 3 3 31 39 62 81 192 259 464 543 732 768 107 90 286 225 381
287 33 21 62 41 65 44 13 13 366 220 375 220 8 0 212 121 300 178 271 176 585
447 783 677 24 28 54 61 66 75 54 61 191 246 269 365 81 124 182 301 276 485
24 47 64 126 90 175 66 126 212 408 286 550 34 66 102 197 150 290 93 179 170
329 277 535 36 69 95 181 130 250 36 69 109 210 163 313 53 104 94 191 91 195
-8 7 -10 8 -126 17 -52 4 -115 10 -140 12 -54 5 -726 13 -731 9z"/>
<path d="M10080 8899 c-14 -9 -484 -239 -811 -397 -154 -74 -418 -203 -774
-377 -121 -59 -287 -140 -370 -180 -229 -111 -558 -272 -775 -377 -107 -53
-271 -133 -365 -178 -93 -45 -227 -111 -297 -146 -137 -68 -125 -65 -263 -50
-22 3 -67 8 -100 11 -33 3 -78 8 -100 10 -22 2 -69 7 -105 10 -36 4 -78 8 -95
10 -16 2 -55 6 -85 9 -112 12 -266 27 -315 32 -27 2 -66 6 -85 9 -19 2 -64 7
-100 10 -36 3 -85 8 -110 11 -25 3 -67 7 -95 9 -27 2 -74 6 -102 9 -29 4 -77
8 -105 11 l-53 5 75 -71 c41 -40 125 -120 185 -178 127 -121 445 -426 521
-498 86 -82 393 -375 454 -433 31 -30 135 -129 230 -220 95 -91 201 -191 234
-223 331 -315 295 -285 310 -265 7 10 50 58 95 107 46 49 91 99 101 111 32 37
153 172 185 206 32 34 77 84 140 154 38 43 193 215 225 250 33 35 109 120 185
204 44 49 89 99 100 110 11 12 56 62 100 111 44 50 99 110 121 135 23 25 59
65 80 89 22 24 55 60 74 81 19 20 64 70 100 110 36 40 74 82 85 94 11 12 58
64 105 116 47 52 87 97 90 100 6 6 77 84 190 210 119 132 182 202 278 307 46
51 93 102 104 115 18 21 135 151 185 206 71 78 180 197 193 213 18 19 138 153
215 238 28 30 60 66 73 80 12 14 35 40 51 56 26 28 46 56 39 54 -2 0 -10 -4
-18 -10z"/>
</g>
</svg>
