<svg xmlns="http://www.w3.org/2000/svg" viewBox="0 0 372.115 64.8"><defs><style>.a{fill:#0377be}.b{fill:#37474f}</style></defs><path class="a" d="M104.725 27.09a7.356 7.356 0 0 0-2.712-2.064 9.027 9.027 0 0 0-3.72-.72 9.307 9.307 0 0 0-7.032 3.096 10.617 10.617 0 0 0-2.064 3.48 13.278 13.278 0 0 0 0 8.76 10.924 10.924 0 0 0 2.04 3.456 9.234 9.234 0 0 0 3.049 2.28 8.804 8.804 0 0 0 3.767.816 8.445 8.445 0 0 0 4.08-.96 8.122 8.122 0 0 0 2.928-2.688l6.24 4.656a12.995 12.995 0 0 1-5.471 4.463 16.934 16.934 0 0 1-6.817 1.44 20.942 20.942 0 0 1-7.344-1.247 16.817 16.817 0 0 1-5.808-3.576 16.213 16.213 0 0 1-3.816-5.64 19.191 19.191 0 0 1-1.368-7.393 19.192 19.192 0 0 1 1.368-7.391 16.218 16.218 0 0 1 3.816-5.64 16.831 16.831 0 0 1 5.808-3.576 20.942 20.942 0 0 1 7.344-1.248 18.06 18.06 0 0 1 3 .264 16.263 16.263 0 0 1 3.072.84 13.713 13.713 0 0 1 2.904 1.536 11.587 11.587 0 0 1 2.496 2.352zm8.116 1.824h7.2v3.744h.096a8.862 8.862 0 0 1 2.737-3.24 6.918 6.918 0 0 1 3.984-1.08q.622 0 1.248.048a6.238 6.238 0 0 1 1.151.192v6.576a10.99 10.99 0 0 0-1.511-.36 9.902 9.902 0 0 0-1.56-.12 7.654 7.654 0 0 0-3.265.576 4.335 4.335 0 0 0-1.847 1.608 6.102 6.102 0 0 0-.84 2.472 23.913 23.913 0 0 0-.193 3.168v9.744h-7.2zm39.961 19.296a11.48 11.48 0 0 1-4.368 3.408 13.097 13.097 0 0 1-5.472 1.2 14.698 14.698 0 0 1-5.064-.864 12.178 12.178 0 0 1-4.128-2.472 11.58 11.58 0 0 1-2.76-3.864 13.106 13.106 0 0 1 0-10.08 11.594 11.594 0 0 1 2.76-3.864 12.195 12.195 0 0 1 4.128-2.472 14.698 14.698 0 0 1 5.064-.864 11.517 11.517 0 0 1 4.536.864 9.45 9.45 0 0 1 3.456 2.472 11.271 11.271 0 0 1 2.184 3.864 15.586 15.586 0 0 1 .768 5.04v2.255h-16.704a5.698 5.698 0 0 0 1.872 3.289 5.296 5.296 0 0 0 3.552 1.224 5.413 5.413 0 0 0 3-.792 8.07 8.07 0 0 0 2.136-2.04zm-6.096-10.273a4.17 4.17 0 0 0-1.2-3.12 4.27 4.27 0 0 0-3.216-1.296 5.405 5.405 0 0 0-2.112.385 5.308 5.308 0 0 0-1.56.984 4.328 4.328 0 0 0-1.008 1.392 4.582 4.582 0 0 0-.408 1.655zm34.474 14.305h-6.625V49.17h-.096a7.97 7.97 0 0 1-1.127 1.272 8.524 8.524 0 0 1-1.632 1.176 10 10 0 0 1-2.065.864 8.142 8.142 0 0 1-2.328.336 12.022 12.022 0 0 1-4.703-.888 10.464 10.464 0 0 1-3.624-2.496 11.098 11.098 0 0 1-2.328-3.816 13.864 13.864 0 0 1-.817-4.848 14.696 14.696 0 0 1 .745-4.68 12.874 12.874 0 0 1 2.112-3.96 10.315 10.315 0 0 1 3.336-2.76 9.47 9.47 0 0 1 4.464-1.032 12.388 12.388 0 0 1 4.2.696 6.725 6.725 0 0 1 3.191 2.376h.097V15.954h7.2zm-6.625-11.664a6.038 6.038 0 0 0-1.512-4.272 6.345 6.345 0 0 0-8.496 0 6.038 6.038 0 0 0-1.511 4.272 6.035 6.035 0 0 0 1.511 4.272 6.344 6.344 0 0 0 8.496 0 6.035 6.035 0 0 0 1.512-4.272zm10.31-19.008a4.176 4.176 0 1 1 7.128 2.951 4.176 4.176 0 0 1-7.128-2.951zm.576 7.344h7.2v23.328h-7.2zm26.812 5.76h-6.336v7.776a14.536 14.536 0 0 0 .096 1.752 3.532 3.532 0 0 0 .433 1.368 2.177 2.177 0 0 0 1.031.888 4.569 4.569 0 0 0 1.849.312 12.417 12.417 0 0 0 1.511-.12 2.56 2.56 0 0 0 1.416-.552v6a10.895 10.895 0 0 1-2.496.576 23.105 23.105 0 0 1-2.544.144 13.833 13.833 0 0 1-3.36-.384 7.639 7.639 0 0 1-2.688-1.225 5.725 5.725 0 0 1-1.8-2.183 7.456 7.456 0 0 1-.648-3.264V34.674h-4.607v-5.76h4.607V22h7.2v6.913h6.336z"/><path class="b" d="M228.62 18.258h11.233a32.071 32.071 0 0 1 7.752.912 17.736 17.736 0 0 1 6.407 2.952 14.482 14.482 0 0 1 4.345 5.304 17.797 17.797 0 0 1 1.607 7.92 16.17 16.17 0 0 1-1.56 7.272 15.632 15.632 0 0 1-4.2 5.28 18.569 18.569 0 0 1-6.095 3.24 23.67 23.67 0 0 1-7.248 1.104h-12.24zm7.489 27.072h3.888a20.904 20.904 0 0 0 4.824-.528 10.312 10.312 0 0 0 3.863-1.752 8.4 8.4 0 0 0 2.568-3.217 11.4 11.4 0 0 0 .937-4.871 9.502 9.502 0 0 0-.937-4.344 8.695 8.695 0 0 0-2.52-3.048 11.061 11.061 0 0 0-3.72-1.8 16.54 16.54 0 0 0-4.487-.6h-4.416zm26.121-23.76a4.175 4.175 0 1 1 4.176 4.176 4.179 4.179 0 0 1-4.176-4.176zm.575 7.344h7.2v23.328h-7.2zm11.198 0h7.2v3.744h.096a8.852 8.852 0 0 1 2.737-3.24 6.916 6.916 0 0 1 3.983-1.08q.624 0 1.248.048a6.235 6.235 0 0 1 1.152.192v6.576a11.058 11.058 0 0 0-1.511-.36 9.915 9.915 0 0 0-1.56-.12 7.652 7.652 0 0 0-3.265.576 4.335 4.335 0 0 0-1.847 1.608 6.103 6.103 0 0 0-.841 2.472 24.089 24.089 0 0 0-.191 3.168v9.744h-7.2zm39.961 19.296a11.48 11.48 0 0 1-4.368 3.408 13.094 13.094 0 0 1-5.472 1.2 14.698 14.698 0 0 1-5.064-.864 12.178 12.178 0 0 1-4.128-2.472 11.595 11.595 0 0 1-2.76-3.864 13.106 13.106 0 0 1 0-10.08 11.607 11.607 0 0 1 2.76-3.864 12.195 12.195 0 0 1 4.128-2.472 14.698 14.698 0 0 1 5.064-.864 11.521 11.521 0 0 1 4.537.864 9.458 9.458 0 0 1 3.456 2.472 11.285 11.285 0 0 1 2.183 3.864 15.586 15.586 0 0 1 .768 5.04v2.255h-16.703a5.687 5.687 0 0 0 1.872 3.289 5.293 5.293 0 0 0 3.552 1.224 5.411 5.411 0 0 0 3-.792 8.07 8.07 0 0 0 2.135-2.04zm-6.095-10.273a4.17 4.17 0 0 0-1.2-3.12 4.268 4.268 0 0 0-3.216-1.296 5.406 5.406 0 0 0-2.113.385 5.29 5.29 0 0 0-1.56.984 4.316 4.316 0 0 0-1.008 1.392 4.58 4.58 0 0 0-.407 1.655zm25.592-1.487a4.044 4.044 0 0 0-1.488-1.272 4.377 4.377 0 0 0-2.063-.504 5.505 5.505 0 0 0-4.248 1.632 6.038 6.038 0 0 0-1.512 4.272 6.035 6.035 0 0 0 1.512 4.272 5.502 5.502 0 0 0 4.248 1.632 3.874 3.874 0 0 0 2.063-.528 6.283 6.283 0 0 0 1.488-1.248l4.752 4.992a9.18 9.18 0 0 1-3.96 2.424 14.908 14.908 0 0 1-4.343.696 14.698 14.698 0 0 1-5.065-.864 12.178 12.178 0 0 1-4.128-2.472 11.595 11.595 0 0 1-2.76-3.864 13.106 13.106 0 0 1 0-10.08 11.607 11.607 0 0 1 2.76-3.864 12.195 12.195 0 0 1 4.128-2.472 14.698 14.698 0 0 1 5.065-.864 14.907 14.907 0 0 1 4.343.696 9.188 9.188 0 0 1 3.96 2.424zm23.126-1.776h-6.336v7.776a14.524 14.524 0 0 0 .097 1.752 3.515 3.515 0 0 0 .432 1.368 2.175 2.175 0 0 0 1.032.888 4.564 4.564 0 0 0 1.848.312 12.417 12.417 0 0 0 1.511-.12 2.56 2.56 0 0 0 1.416-.552v6a10.895 10.895 0 0 1-2.496.576 23.092 23.092 0 0 1-2.544.144 13.839 13.839 0 0 1-3.359-.384 7.655 7.655 0 0 1-2.689-1.225 5.725 5.725 0 0 1-1.8-2.183 7.47 7.47 0 0 1-.647-3.264V34.674h-4.608v-5.76h4.608V22h7.2v6.913h6.335z"/><path class="a" d="M28.292 29.091l17.753-8.648-8.645 9.565-9.108-.917z"/><path fill="#00579b" d="M20.369 28.294l9.97 9.526 7.061-7.812-17.031-1.714z"/><path class="a" d="M55.845 41.356a23.457 23.457 0 0 1-22.207 23.419c-.404.012-.82.025-1.238.025s-.833-.013-1.238-.025a23.433 23.433 0 0 1-18.82-35.533 16.104 16.104 0 0 0-1.87 7.579 16.342 16.342 0 0 0 32.603 1.635 6.258 6.258 0 0 1 5.42-5.51 6.311 6.311 0 0 1 7.155 5.365 23.754 23.754 0 0 1 .195 3.045z"/><path d="M31.162 64.775A32.402 32.402 0 1 1 35.738.168l.2.02-6.495 12.527a19.331 19.331 0 0 1-8.02 7.963 23.425 23.425 0 0 0 9.74 44.097z" fill="#44b3e6"/><path class="b" d="M361.587 18.247a5.755 5.755 0 0 1 .694-2.78 5.19 5.19 0 0 1 1.92-2.02 5.13 5.13 0 0 1 5.3 0 5.19 5.19 0 0 1 1.92 2.02 5.933 5.933 0 0 1 .02 5.53 5.284 5.284 0 0 1-1.903 2.043 5.09 5.09 0 0 1-5.374 0 5.284 5.284 0 0 1-1.902-2.043 5.793 5.793 0 0 1-.675-2.75zm.63-.004a5.104 5.104 0 0 0 .62 2.47 4.664 4.664 0 0 0 1.697 1.8 4.422 4.422 0 0 0 4.637 0 4.595 4.595 0 0 0 1.694-1.803 5.16 5.16 0 0 0 .612-2.467 5.099 5.099 0 0 0-.6-2.434 4.637 4.637 0 0 0-1.68-1.795 4.448 4.448 0 0 0-4.67-.011 4.659 4.659 0 0 0-1.694 1.788 5.051 5.051 0 0 0-.615 2.452zm3.433.463v2.565h-.726v-6.22h1.912a2.68 2.68 0 0 1 1.676.456 1.641 1.641 0 0 1 .585 1.381 1.544 1.544 0 0 1-1.045 1.46 1.269 1.269 0 0 1 .741.597 2.099 2.099 0 0 1 .208.968 7.86 7.86 0 0 0 .03.817 1.728 1.728 0 0 0 .096.423v.118h-.756a5.081 5.081 0 0 1-.104-1.353 1.289 1.289 0 0 0-.278-.937 1.319 1.319 0 0 0-.945-.275zm0-.667h1.342a1.535 1.535 0 0 0 .99-.311 1.002 1.002 0 0 0 .389-.823 1.116 1.116 0 0 0-.323-.9 1.8 1.8 0 0 0-1.108-.286h-1.29z"/></svg>