<svg viewBox="0 0 183 60" xmlns="http://www.w3.org/2000/svg"><g fill="none"><path d="M53.53 59.654l82.52-6.19a4.6 4.6 0 0 0 4.256-4.587V4.601A4.6 4.6 0 0 0 135.36.013l-82.519 6.19a4.6 4.6 0 0 0-4.256 4.587v44.276a4.6 4.6 0 0 0 4.944 4.588z" fill="#44B3E6"/><path d="M136.05 53.465a4.6 4.6 0 0 0 4.256-4.588V4.601a4.63 4.63 0 0 0-.044-.602c-6.53-.786-16.727-1.818-28.043-2.25L67.535 5.1c-8.592 2.288-15.476 5.884-18.95 11.358l63.91 38.773 23.554-1.766z" fill="#00579B"/><path d="M135.361.013l-82.519 6.19a4.6 4.6 0 0 0-4.256 4.587v5.668L89.94 28.52c2.908.848 6.023.634 8.788-.602l41.577-18.594V4.6A4.6 4.6 0 0 0 135.36.013z" fill="#44B3E6"/><path d="M56.07 56.645a3.67 3.67 0 0 1-3.672-3.671V25.152a1.146 1.146 0 0 1 2.293 0v27.822a1.378 1.378 0 0 0 1.496 1.373l32.8-2.821a1.146 1.146 0 0 1 .197 2.284l-32.8 2.821c-.105.01-.21.014-.313.014zM90.645 8.724a1.146 1.146 0 0 1-.088-2.29l43.949-3.439a1.146 1.146 0 0 1 .178 2.286L90.735 8.72a1.14 1.14 0 0 1-.09.003z" fill="#FFF"/><path d="M2.863 37.711a2.866 2.866 0 0 1-.24-5.722l36.25-3.1a2.866 2.866 0 0 1 .488 5.711l-36.25 3.1a2.91 2.91 0 0 1-.248.011zM151.96 26.219a2.866 2.866 0 0 1-.242-5.722l27.63-2.363a2.866 2.866 0 1 1 .489 5.711l-27.63 2.363a2.91 2.91 0 0 1-.248.01zm-.062-12.171a2.866 2.866 0 0 1-.24-5.722l13.814-1.182a2.866 2.866 0 1 1 .489 5.712l-13.815 1.181c-.083.007-.166.01-.248.01zm0 26.95a2.866 2.866 0 0 1-.24-5.722l5.092-.435a2.866 2.866 0 1 1 .489 5.711l-5.093.436a2.91 2.91 0 0 1-.248.01zM22.145 52.878a2.866 2.866 0 0 1-.241-5.722l16.143-1.38a2.866 2.866 0 0 1 .488 5.71l-16.143 1.381a2.58 2.58 0 0 1-.247.011zm-7.52-28.89a2.866 2.866 0 0 1-.24-5.722l23.662-2.024a2.866 2.866 0 0 1 .488 5.711l-23.662 2.024a2.91 2.91 0 0 1-.248.011z" fill="#00579B"/></g></svg>
