<svg viewBox="0 0 110 80" xmlns="http://www.w3.org/2000/svg"><g fill="none"><path d="M77.798 53.575V6.18H38.846v23.286H6.126V76.27A3.715 3.715 0 0 0 9.825 80h90.761a3.715 3.715 0 0 0 3.699-3.731V53.575H77.798z" fill="#FFF"/><rect fill="#57A0D7" x="12.967" y="35.674" width="5.514" height="10.918" rx="2.757"/><rect fill="#57A0D7" x="25.906" y="35.674" width="5.514" height="10.918" rx="2.757"/><rect fill="#57A0D7" x="12.967" y="50.919" width="5.514" height="10.918" rx="2.757"/><rect fill="#57A0D7" x="25.906" y="50.919" width="5.514" height="10.918" rx="2.757"/><ellipse fill="#2B66B1" cx="49.588" cy="14.524" rx="3.165" ry="3.193"/><ellipse fill="#2B66B1" cx="67.127" cy="14.524" rx="3.165" ry="3.193"/><ellipse fill="#57A0D7" cx="49.588" cy="24.275" rx="3.165" ry="3.193"/><ellipse fill="#2B66B1" cx="67.127" cy="24.275" rx="3.165" ry="3.193"/><ellipse fill="#2B66B1" cx="49.588" cy="34.026" rx="3.165" ry="3.193"/><ellipse fill="#2B66B1" cx="67.127" cy="34.026" rx="3.165" ry="3.193"/><ellipse fill="#2B66B1" cx="49.588" cy="43.777" rx="3.165" ry="3.193"/><ellipse fill="#57A0D7" cx="67.127" cy="43.777" rx="3.165" ry="3.193"/><ellipse fill="#2B66B1" cx="49.588" cy="53.528" rx="3.165" ry="3.193"/><ellipse fill="#2B66B1" cx="67.127" cy="53.528" rx="3.165" ry="3.193"/><path d="M54.741 69.013h7.642a3.1 3.1 0 0 1 3.1 3.099V80H51.642v-7.888a3.1 3.1 0 0 1 3.099-3.1zm-36.819 0h7.642a3.1 3.1 0 0 1 3.1 3.099V80H14.821v-7.888a3.1 3.1 0 0 1 3.1-3.1zm59.881-21.617h29.107a3.09 3.09 0 0 1 0 6.18H77.803v-6.18zM38.846 29.443H3.09a3.09 3.09 0 0 1 0-6.18h35.756v6.18z" fill="#2B66B1"/><rect fill="#2B66B1" transform="rotate(180 58.562 3.09)" x="34.91" width="47.304" height="6.18" rx="3.09"/><path d="M87.721 43.705h7.006c.877 0 1.588.712 1.588 1.589v2.102H86.133v-2.102c0-.877.71-1.589 1.588-1.589z" fill="#FFF"/><rect fill="#57A0D7" x="80.866" y="63.794" width="17.834" height="6.455" rx="3.227"/></g></svg>
