<svg viewBox="0 0 100 70" xmlns="http://www.w3.org/2000/svg"><g fill="none"><rect fill="#37474F" y="28.683" width="16.786" height="41.317" rx="3.262"/><rect fill="#37474F" x="83.15" y="28.683" width="16.786" height="41.317" rx="3.262"/><path d="M85.027 19.55h-.86l-1.918-9.808C81.158 4.16 74.345 0 66.297 0H33.703c-8.048 0-14.86 4.16-15.952 9.742l-1.917 9.808h-.861A8.204 8.204 0 0 0 6.5 27.456V56.23a8.204 8.204 0 0 0 8.473 7.907h70.054A8.204 8.204 0 0 0 93.5 56.23V27.456a8.204 8.204 0 0 0-8.473-7.906z" fill="#FFF"/><path d="M95.951 49.956h-20.89a3.261 3.261 0 0 0-3.368 3.142 4.096 4.096 0 0 1-4.23 3.948H32.537a4.096 4.096 0 0 1-4.23-3.948 3.261 3.261 0 0 0-3.368-3.142H4.049A3.92 3.92 0 0 0 0 53.734v6.624a3.92 3.92 0 0 0 4.049 3.778H95.95a3.92 3.92 0 0 0 4.05-3.778v-6.624a3.92 3.92 0 0 0-4.049-3.778z" fill="#37474F"/><rect fill="#37474F" x="33.812" y="28.389" width="32.377" height="2.699" rx="1.292"/><rect fill="#37474F" x="33.812" y="32.829" width="32.377" height="2.699" rx="1.292"/><rect fill="#37474F" x="33.812" y="37.27" width="32.377" height="2.699" rx="1.292"/><path d="M17.328 11.907H8.879a3.795 3.795 0 0 0-3.4 2.005 3.397 3.397 0 0 0 1.53 4.558l3.865 2.065a10.047 10.047 0 0 1 4.326-.985h.634l1.494-7.643zm65.344 0h8.449a3.795 3.795 0 0 1 3.4 2.005 3.397 3.397 0 0 1-1.53 4.558l-3.865 2.065a10.047 10.047 0 0 0-4.327-.985h-.633l-1.494-7.643z" fill="#37474F"/><ellipse fill="#78909C" cx="19.98" cy="32.363" rx="6.496" ry="6.062"/><ellipse fill="#78909C" cx="80.02" cy="32.363" rx="6.496" ry="6.062"/><path d="M67.04 4.272H32.96c-5.492 0-9.943 3.798-9.943 8.483v6.795h53.966v-6.795c0-4.685-4.451-8.483-9.942-8.483z" fill="#78909C"/></g></svg>
