<svg xmlns="http://www.w3.org/2000/svg" viewBox="0 0 95.11285 80.973"><defs><style>.a{fill:#2b66b1;}.b{fill:#57a0d7;}.c{fill:#fff;}</style></defs><title>Debt Consolidation Icon</title><path class="a" d="M2.10993,61.60415S-5.398,40.97183,7.91151,33.62132l-5.119-6.68384s1.02381-2,4.4365-1.66667,2.38889-3.33333,7.16666-2.66666,3.754-.82909,6.82538-.08122-.49347,8.67728-.49347,8.67728,6.67592-.5,9.21007,6.79028C38.17336,61.68323,13.14848,87.62434,2.10993,61.60415Z"/><path class="a" d="M93.00292,61.60415s7.50792-20.63232-5.80158-27.98283l5.119-6.68384s-1.02381-2-4.4365-1.66667-2.38889-3.33333-7.16666-2.66666-3.754-.82909-6.82538-.08122.49348,8.67728.49348,8.67728-6.67592-.5-9.21007,6.79028C56.93949,61.68323,81.96438,87.62434,93.00292,61.60415Z"/><rect class="b" x="27.20612" y="16.66553" width="41" height="8.33333" rx="4.16666" ry="4.16666"/><path class="c" d="M25.40422,3.80681,33.87279,16.6655H61.53948L69.98516,3.84156A2.14169,2.14169,0,0,0,68.7295.58319c-2.68021-.67385-6.65025-1.1653-9.02338.89829-3.83333,3.33333-5.66668,0-12,0s-8.33333,3.33333-12.33333,0c-2.442-2.035-6.18854-1.58526-8.73658-.92618A2.13971,2.13971,0,0,0,25.40422,3.80681Z"/><path class="c" d="M79.8609,48.23148c-6.84152-20-18.50222-23.23266-18.50222-23.23266H34.2372S22.57651,28.23148,15.735,48.23148,8.10088,80.973,23.95108,80.973H71.6448C87.495,80.973,86.7025,68.23148,79.8609,48.23148Z"/><circle class="b" cx="47.70612" cy="52.98591" r="17.76852"/><path class="c" d="M49.59685,58.03634A2.66092,2.66092,0,0,0,49.03,56.23417a5.294,5.294,0,0,0-1.9911-1.23536q-1.4243-.58134-2.63059-1.17722A9.12466,9.12466,0,0,1,42.33,52.4409a5.4239,5.4239,0,0,1-1.33709-1.81671,6.06023,6.06023,0,0,1-.46508-2.49978,5.37023,5.37023,0,0,1,1.65683-4.04762,6.74408,6.74408,0,0,1,3.50408-1.72428,1.1397,1.1397,0,0,0,.91414-1.12441v-.91552a1.15543,1.15543,0,0,1,1.15542-1.15543h0a1.15543,1.15543,0,0,1,1.15543,1.15543v1.02935a1.13269,1.13269,0,0,0,.83855,1.10562,6.2342,6.2342,0,0,1,3.33986,2.02165,6.37175,6.37175,0,0,1,1.42691,3.25663,1.15149,1.15149,0,0,1-1.14732,1.29966H50.76724a1.21439,1.21439,0,0,1-1.146-1.00975,3.13109,3.13109,0,0,0-.504-1.31563,1.91422,1.91422,0,0,0-1.65684-.81388,1.87924,1.87924,0,0,0-1.48969.60314,2.43362,2.43362,0,0,0-.53048,1.6641,2.35467,2.35467,0,0,0,.61041,1.70771,6.013,6.013,0,0,0,1.962,1.20629q1.35163.57408,2.55065,1.19175a9.75067,9.75067,0,0,1,2.071,1.4025A5.73967,5.73967,0,0,1,54.00054,55.493a5.84775,5.84775,0,0,1,.49414,2.51432,5.47359,5.47359,0,0,1-1.5769,4.05488A6.38516,6.38516,0,0,1,49.535,63.76261a1.14071,1.14071,0,0,0-.91193,1.12385v.77278a1.15542,1.15542,0,0,1-1.15542,1.15542h0a1.15542,1.15542,0,0,1-1.15542-1.15542l0-.78888a1.14205,1.14205,0,0,0-.91789-1.12576,6.93994,6.93994,0,0,1-3.94359-2.03851,6.40063,6.40063,0,0,1-1.60886-3.5627A1.14906,1.14906,0,0,1,40.99,56.85913H43.5899a1.18005,1.18005,0,0,1,1.14619,1.01149,3.11033,3.11033,0,0,0,.65327,1.51009,2.5848,2.5848,0,0,0,2.08558.86475A2.05751,2.05751,0,0,0,49.03,59.65684,2.23881,2.23881,0,0,0,49.59685,58.03634Z"/></svg>