<svg viewBox="0 0 98 69" xmlns="http://www.w3.org/2000/svg"><g fill="none"><path d="M91.215 24.703v-3.155a6.419 6.419 0 0 0-6.405-6.434H13.19a6.419 6.419 0 0 0-6.405 6.434v3.155a4.053 4.053 0 0 0-4.044 4.062v28.76a4.053 4.053 0 0 0 4.044 4.062v.062a6.419 6.419 0 0 0 6.405 6.434h71.62a6.419 6.419 0 0 0 6.405-6.434v-.062a4.053 4.053 0 0 0 4.044-4.062v-28.76a4.053 4.053 0 0 0-4.044-4.062z" fill="#FFF"/><path d="M61.389 36.254H55.17a.852.852 0 0 1-.85-.854v-6.246a3.192 3.192 0 0 0-3.184-3.2h-4.271a3.192 3.192 0 0 0-3.185 3.2V35.4a.852.852 0 0 1-.85.854h-6.22a3.192 3.192 0 0 0-3.184 3.2v4.29a3.192 3.192 0 0 0 3.184 3.199h6.219c.47 0 .851.383.85.854v6.246a3.192 3.192 0 0 0 3.185 3.2h4.27a3.192 3.192 0 0 0 3.185-3.2v-6.246a.852.852 0 0 1 .85-.854h6.219a3.192 3.192 0 0 0 3.184-3.2v-4.29a3.192 3.192 0 0 0-3.184-3.199z" fill="#C52928"/><path d="M27.985 10.683h8.828a2.48 2.48 0 0 1 2.48 2.481v1.95h-13.79v-1.95a2.48 2.48 0 0 1 2.482-2.48zm44.512 4.431h-13.79v-1.95a2.48 2.48 0 0 1 2.48-2.48h8.829a2.48 2.48 0 0 1 2.48 2.48v1.95z" fill="#EF5451"/><path d="M62.694 0H33.088a3.605 3.605 0 0 0-3.597 3.613v7.07h5.815v-3.67a1.999 1.999 0 0 1 1.995-2.004h23.398a2 2 0 0 1 1.995 2.003v3.671h5.815v-7.07A3.605 3.605 0 0 0 64.912 0h-2.218z" fill="#C52928"/><path d="M6.785 24.703H2.368A2.373 2.373 0 0 0 0 27.08v10.854a1.91 1.91 0 0 0 1.906 1.914h4.88V24.703zm84.43 0h4.417A2.373 2.373 0 0 1 98 27.08v10.854a1.91 1.91 0 0 1-1.906 1.914h-4.88V24.703z" fill="#EF5451"/></g></svg>
