<svg viewBox="0 0 78 75" xmlns="http://www.w3.org/2000/svg"><g fill="none"><rect fill="#FFF" y="18.892" width="78" height="56.108" rx="7.505"/><path fill="#9B51A0" d="M0 39.361h78v15.171H0z"/><path fill="#692C90" d="M31.621 18.892h16.347V75H31.621z"/><path d="M53.224 1.532C49.467-1.449 44.15.202 39.448 4.058 34.747.202 29.431-1.45 25.673 1.532c-4.076 3.235-1.93 8.433 3.04 13.002a18.116 18.116 0 0 0 9.205 4.675c.288.049.579.082.87.1l.028.002c.208.012.418.018.632.016.215.002.425-.004.633-.016l.027-.002c.292-.018.583-.051.871-.1a18.116 18.116 0 0 0 9.204-4.675c4.97-4.57 7.117-9.767 3.04-13.002z" fill="#692C90"/><path d="M39.448 19.327S25.162 12.203 14.17 22.74a1.095 1.095 0 0 0 .047 1.648l7.11 5.814a1.109 1.109 0 0 0 1.529-.112c2.145-2.394 9.008-9.435 16.593-10.763z" fill="#692C90"/><path d="M39.448 19.327s14.322-7.141 25.32 3.452a1.078 1.078 0 0 1-.086 1.608l-7.112 5.815a1.109 1.109 0 0 1-1.528-.112c-2.145-2.394-9.008-9.435-16.594-10.763z" fill="#692C90"/></g></svg>
