<svg viewBox="0 0 140 70" xmlns="http://www.w3.org/2000/svg"><g fill="none"><path d="M81.157 21.338v.003L45.287 3.128 9.416 21.341v46.434A2.208 2.208 0 0 0 11.606 70h67.36a2.208 2.208 0 0 0 2.191-2.225v-2.852h51.6a2.208 2.208 0 0 0 2.191-2.225v-41.36h-53.79z" fill="#FFF"/><path d="M44.366.209L1.246 20.767A2.204 2.204 0 0 0 0 22.759a2.17 2.17 0 0 0 3.089 1.993l41.277-19.68a2.138 2.138 0 0 1 1.842 0l41.277 19.68a2.17 2.17 0 0 0 3.088-1.992 2.204 2.204 0 0 0-1.246-1.993L46.207.209a2.137 2.137 0 0 0-1.841 0z" fill="#FAA629"/><path d="M80.323 17.01h57.52A2.156 2.156 0 0 1 140 19.166v.015a2.157 2.157 0 0 1-2.156 2.157H80.323V17.01zM43.54 32.23h3.494c5.788 0 10.48 4.692 10.48 10.48V70H33.06V42.71c0-5.788 4.693-10.48 10.48-10.48z" fill="#FAA629"/><path d="M88.854 32.23h33.95a3.692 3.692 0 0 1 3.692 3.692v29H85.162v-29a3.692 3.692 0 0 1 3.692-3.692z" fill="#ED6D23"/><ellipse fill="#ED6D23" cx="45.287" cy="19.174" rx="6.484" ry="6.585"/><path d="M61.229 7.37V1.483A1.472 1.472 0 0 1 62.689 0h11.955a1.47 1.47 0 0 1 1.46 1.483v12.98L61.23 7.37z" fill="#FFF"/></g></svg>
