<svg xmlns="http://www.w3.org/2000/svg" viewBox="0 0 112.39841 62"><defs><style>.a{fill:#fff;}.b{fill:#692c90;}.c{fill:#9b51a0;}</style></defs><title>major_purchase_icon</title><path class="a" d="M107.37553,0H61.5151a5.02291,5.02291,0,0,0-5.02288,5.02288A5.02291,5.02291,0,0,0,51.46934,0H5.02294A5.02292,5.02292,0,0,0,0,5.02288V56.97712A5.02292,5.02292,0,0,0,5.02294,62h46.4464a5.02291,5.02291,0,0,0,5.02288-5.02288A5.02291,5.02291,0,0,0,61.5151,62h45.86043a5.02291,5.02291,0,0,0,5.02288-5.02288V5.02288A5.02291,5.02291,0,0,0,107.37553,0Z"/><path class="b" d="M83.5956,54.65918a20.43013,20.43013,0,1,1,20.43061-20.42965A20.45325,20.45325,0,0,1,83.5956,54.65918Zm0-36.92571a16.49558,16.49558,0,1,0,16.49607,16.49606A16.515,16.515,0,0,0,83.5956,17.73347Z"/><circle class="c" cx="102.3192" cy="7.02319" r="3.35236"/><circle class="c" cx="72.52187" cy="7.02319" r="2.37048"/><circle class="c" cx="63.78463" cy="7.02319" r="2.37048"/><circle class="c" cx="44.45218" cy="7.02319" r="2.37048"/><path class="c" d="M36.896,8.99026H18.204a1.96727,1.96727,0,1,1,0-3.93454H36.896a1.96727,1.96727,0,0,1,0,3.93454Z"/><path class="b" d="M95.83082,46.34991a17.30692,17.30692,0,0,0,0-24.47572L71.35511,46.34991A17.307,17.307,0,0,0,95.83082,46.34991Z"/><path class="b" d="M7.74862,24.29235a2.79349,2.79349,0,0,1,2.79346,2.79346V41.45649a2.79348,2.79348,0,0,1-2.79346,2.79345H6.17321v4.27638a4.97715,4.97715,0,0,0,4.97715,4.97715H44.69729a4.97716,4.97716,0,0,0,4.97715-4.97715V20.016a4.97715,4.97715,0,0,0-4.97715-4.97715H11.15036A4.97714,4.97714,0,0,0,6.17321,20.016v4.27637Z"/></svg>