<svg viewBox="0 0 68 90" xmlns="http://www.w3.org/2000/svg"><g fill="none"><path d="M63.003 45.366h-3.108v-.246c0-2.055-1.695-20.301-3.786-20.301h-1.02v-.958a5.93 5.93 0 0 0-5.98-5.878H18.886a5.93 5.93 0 0 0-5.98 5.878v.958h-1.02c-2.091 0-3.786 18.246-3.786 20.3v.247H4.992a3.805 3.805 0 0 0-3.838 3.772v28.478a3.805 3.805 0 0 0 3.838 3.772h3.211a3.768 3.768 0 0 0 3.683 2.888h44.223a3.768 3.768 0 0 0 3.683-2.888h3.211a3.805 3.805 0 0 0 3.837-3.772V49.138a3.805 3.805 0 0 0-3.837-3.772z" fill="#FFF"/><path d="M18.258 90a3.434 3.434 0 0 1-3.463-3.404v-2.32h6.926v2.32A3.434 3.434 0 0 1 18.258 90zm31.479 0a3.434 3.434 0 0 1-3.463-3.404v-2.32H53.2v2.32A3.434 3.434 0 0 1 49.737 90zM45.293.016c-4.157.443-8.335.656-12.515.64-4.18.016-8.359-.197-12.516-.64a2.426 2.426 0 0 0-2.712 2.391 2.427 2.427 0 0 0 2.447 2.406h1.724v13.17h3.777V4.813h14.953v13.17h3.777V4.813h1.33a2.427 2.427 0 0 0 2.448-2.406A2.426 2.426 0 0 0 45.293.016z" fill="#317E3D"/><path d="M51.468 73.632a2.217 2.217 0 0 1-2.235-2.197V34.719c0-1.633-2.057-3.013-4.493-3.013H23.255c-2.436 0-4.493 1.38-4.493 3.013v36.716a2.236 2.236 0 0 1-4.471 0V34.719c0-4.084 4.021-7.408 8.964-7.408H44.74c4.943 0 8.964 3.324 8.964 7.408v36.716a2.217 2.217 0 0 1-2.236 2.197z" fill="#66BB6A"/><path d="M43.191 44.477h-3.553a1.028 1.028 0 0 1-1.037-1.02v-7.556c0-.325.157-.629.42-.819l1.776-1.294a1.051 1.051 0 0 1 1.235 0l1.777 1.294c.262.19.418.495.42.819v7.557a1.028 1.028 0 0 1-1.038 1.019zm-35.068 0v16.515H.601a.596.596 0 0 1-.601-.59V47.043a2.59 2.59 0 0 1 2.611-2.567h5.512zm51.754 0v16.515h7.522a.596.596 0 0 0 .601-.59V47.043a2.59 2.59 0 0 0-2.611-2.567h-5.512z" fill="#317E3D"/></g></svg>
