<svg viewBox="0 0 85 80" xmlns="http://www.w3.org/2000/svg"><g transform="translate(0 -1)" fill="none"><path d="M76.383 81H67.59a3.501 3.501 0 0 1-3.502-3.501v-19.24h15.797v19.24A3.501 3.501 0 0 1 76.383 81zM5.115 58.259h15.797v19.24A3.501 3.501 0 0 1 17.41 81H8.617a3.501 3.501 0 0 1-3.502-3.501v-19.24z" fill="#D74527"/><path d="M6.294 42.74h3.936v28.574H3.513A3.513 3.513 0 0 1 0 67.8V49.033a6.294 6.294 0 0 1 6.294-6.294zm75.193 28.574H74.77V42.739h3.936A6.294 6.294 0 0 1 85 49.033v18.768a3.513 3.513 0 0 1-3.513 3.513z" fill="#F37046"/><path d="M78.004 52.593H74.77V6.051A5.354 5.354 0 0 0 69.157 1H15.843a5.354 5.354 0 0 0-5.613 5.05v46.543H6.995a1.005 1.005 0 0 0-1.053.948v7.425c.03.552.501.975 1.053.948h71.01a1.005 1.005 0 0 0 1.053-.948V53.54a1.005 1.005 0 0 0-1.054-.948z" fill="#FFF"/><path d="M29.61 33.873h25.78a19.38 19.38 0 0 1 19.381 19.38v18.06H10.23v-18.06c0-10.703 8.677-19.38 19.38-19.38z" fill="#FFF"/><path d="M65.518 62.906a3.97 3.97 0 0 1-4.163 3.745h-37.71a3.97 3.97 0 0 1-4.163-3.745 1.052 1.052 0 0 0-1.103-.992H3.97v5.394c0 4.369 3.937 7.91 8.793 7.91h59.472c4.856 0 8.792-3.541 8.792-7.91v-5.394H66.621a1.052 1.052 0 0 0-1.103.992z" fill="#F37046"/><rect fill="#D74527" x="5.943" y="22.929" width="8.575" height="14.89" rx="2.445"/><rect fill="#D74527" x="70.482" y="22.929" width="8.575" height="14.89" rx="2.445"/><path d="M62.8 28.834a6.794 6.794 0 0 0-6.735-5.905h-27.13a6.794 6.794 0 0 0-6.736 5.905l-1.721 13.057h44.044l-1.721-13.057z" fill="#F37046"/><rect fill="#D74527" x="25.512" y="46.99" width="3.996" height="15.127" rx="1.685"/><rect fill="#D74527" x="33.007" y="46.99" width="3.996" height="15.127" rx="1.685"/><rect fill="#D74527" x="40.502" y="46.99" width="3.996" height="15.127" rx="1.685"/><rect fill="#D74527" x="47.996" y="46.99" width="3.996" height="15.127" rx="1.685"/><rect fill="#D74527" x="55.491" y="46.99" width="3.996" height="15.127" rx="1.685"/></g></svg>
