<svg viewBox="0 0 110 80" xmlns="http://www.w3.org/2000/svg"><g fill="none"><path d="M107.544 75.388H97.82V51.354H12.18v24.034H2.456a2.31 2.31 0 1 0 0 4.612h105.088a2.31 2.31 0 1 0 0-4.612z" fill="#FFF"/><path d="M9.87 46.9a1.74 1.74 0 0 0-1.793 1.683v10.474a7.648 7.648 0 0 0 7.82 7.463 7.648 7.648 0 0 0 7.82-7.463 7.648 7.648 0 0 0 7.821 7.463 7.648 7.648 0 0 0 7.821-7.463 7.83 7.83 0 0 0 15.641 0 7.83 7.83 0 0 0 15.641 0 7.83 7.83 0 0 0 15.641 0 7.83 7.83 0 0 0 15.641 0V48.583a1.74 1.74 0 0 0-1.792-1.682H9.869z" fill="#EC417A"/><path fill="#FFF" d="M19.201 29.816H90.8v17.085H19.201z"/><rect fill="#AE1E59" x="14.744" y="29.089" width="80.513" height="4.654" rx="2.327"/><path d="M31.42 20.706h47.16c1.09 0 1.976.885 1.976 1.976v6.407H29.444v-6.407a1.976 1.976 0 0 1 1.977-1.976z" fill="#FFF"/><path d="M61.79 8.508a4.382 4.382 0 0 0 3.445-4.175 4.625 4.625 0 0 0-9.23 0 4.382 4.382 0 0 0 3.444 4.175l-6.35 12.198H68.14L61.79 8.508z" fill="#FFF"/><path d="M43.49 7.588h6.824c.9 0 1.63.73 1.63 1.631v11.487H41.86V9.22c0-.9.73-1.63 1.63-1.63z" fill="#AE1E59"/><ellipse fill="#FFF" cx="46.987" cy="4.333" rx="4.615" ry="4.333"/><ellipse fill="#EC417A" cx="33.013" cy="40.322" rx="2.318" ry="2.176"/><ellipse fill="#EC417A" cx="47.671" cy="40.322" rx="2.318" ry="2.176"/><ellipse fill="#EC417A" cx="62.329" cy="40.322" rx="2.318" ry="2.176"/><ellipse fill="#EC417A" cx="76.987" cy="40.322" rx="2.318" ry="2.176"/></g></svg>
