<svg width="106" height="45" xmlns="http://www.w3.org/2000/svg"><g fill="none"><path d="M100.007 33.488H44.08l3.576-25.116h55.031c.959 0 1.87.404 2.5 1.105a3.15 3.15 0 0 1 .782 2.555l-2.662 18.707c-.238 1.587-1.646 2.76-3.299 2.75z" fill="#0377BE"/><path d="M45.917 5.242L26.969.358a11.3 11.3 0 0 0-5.644 0L2.361 5.242A3.119 3.119 0 0 0 .032 8.705L3.46 33.512a7.263 7.263 0 0 0 4.633 5.805l14.068 5.32a5.557 5.557 0 0 0 3.955 0l14.069-5.345a7.272 7.272 0 0 0 4.632-5.805l3.429-24.782a3.123 3.123 0 0 0-2.33-3.463z" fill="#0377BE"/><path d="M24.663 43.953a3.99 3.99 0 0 1-1.41-.257L9.169 38.35a5.698 5.698 0 0 1-3.624-4.535L2.113 8.992a1.552 1.552 0 0 1 1.15-1.705L22.229 2.4a9.801 9.801 0 0 1 4.867 0l18.968 4.887c.762.2 1.255.93 1.15 1.705l-3.431 24.822a5.694 5.694 0 0 1-3.629 4.535l-14.08 5.347a3.99 3.99 0 0 1-1.41.257z" fill="#44B3E6"/><path d="M42.685 8.415l-18.02-4.229-18.024 4.23a1.802 1.802 0 0 0-1.373 2.019l3.245 21.047a5.112 5.112 0 0 0 3.456 4.069l12.696 4.216 12.696-4.216a5.112 5.112 0 0 0 3.457-4.069l3.24-21.047a1.798 1.798 0 0 0-1.373-2.02z" fill="#0377BE"/><path fill="#FFF" d="M51.629 19.884h-.93l.644-3.98-.967.392.15-.887 1.832-.758h.117zm3.071-.003c-.244 0-.48-.077-.674-.22a1.163 1.163 0 0 1-.39-.607 2.615 2.615 0 0 1-.108-.88 4.26 4.26 0 0 1 .035-.465l.152-.983a3.208 3.208 0 0 1 .622-1.567 1.398 1.398 0 0 1 1.145-.506 1.07 1.07 0 0 1 .903.468c.22.374.319.805.28 1.235a4.26 4.26 0 0 1-.035.465l-.164 1.037a2.887 2.887 0 0 1-.755 1.661 1.36 1.36 0 0 1-1.012.362zm.953-3.209l.047-.38v-.306a.794.794 0 0 0-.09-.38.273.273 0 0 0-.237-.15.453.453 0 0 0-.436.256c-.15.296-.237.619-.257.949l-.171 1.174-.043.38v.306c0 .335.117.51.327.522a.45.45 0 0 0 .432-.248c.152-.303.24-.634.257-.972l.171-1.15zm3.244 3.21c-.243 0-.48-.077-.674-.22a1.16 1.16 0 0 1-.389-.605 2.723 2.723 0 0 1-.11-.879c.004-.155.016-.31.036-.464l.156-.981c.058-.57.272-1.113.619-1.575a1.4 1.4 0 0 1 1.145-.505 1.08 1.08 0 0 1 .907.467c.218.374.314.804.276 1.233-.003.155-.015.31-.035.464l-.163 1.034a2.878 2.878 0 0 1-.756 1.658 1.361 1.361 0 0 1-1.012.373zm.954-3.202l.047-.38v-.305a.746.746 0 0 0-.09-.38.27.27 0 0 0-.238-.149.453.453 0 0 0-.436.255 2.494 2.494 0 0 0-.253.947l-.171 1.172-.047.38v.304c0 .335.117.51.327.521a.457.457 0 0 0 .436-.247c.15-.304.235-.633.254-.97l.17-1.148zm3.066-2.028a.732.732 0 0 1 .6.312c.147.221.21.493.179.762l-.022.27a1.26 1.26 0 0 1-.312.761.804.804 0 0 1-.653.27.703.703 0 0 1-.595-.3 1.087 1.087 0 0 1-.187-.739v-.236c.017-.292.124-.57.305-.791a.831.831 0 0 1 .685-.309zm-.495 4.766l-.42-.285 2.53-3.929.423.286-2.533 3.928zm.097-3.426v.141c0 .202.079.308.212.312a.236.236 0 0 0 .219-.114.698.698 0 0 0 .125-.343l.025-.274v-.144c0-.206-.071-.312-.211-.32a.258.258 0 0 0-.223.122.79.79 0 0 0-.122.346l-.025.274zm1.761 1.523a.703.703 0 0 1 .603.308c.145.214.209.477.18.739v.236a1.341 1.341 0 0 1-.31.799.812.812 0 0 1-.66.285.724.724 0 0 1-.595-.3 1.087 1.087 0 0 1-.19-.762l.022-.232c.01-.299.12-.585.308-.807a.821.821 0 0 1 .642-.266zm-.394 1.328v.134c.001.08.022.159.06.228a.188.188 0 0 0 .155.095c.183 0 .298-.14.359-.464l.028-.26v-.144c0-.205-.078-.312-.215-.316a.243.243 0 0 0-.219.118.73.73 0 0 0-.125.343l-.043.266zm6.894-.395a.56.56 0 0 0-.083-.43 1.328 1.328 0 0 0-.53-.34 4.076 4.076 0 0 1-.675-.343c-.466-.273-.726-.742-.68-1.227.02-.274.128-.538.31-.763.186-.225.439-.404.732-.518.305-.123.639-.183.975-.175.453-.01.888.156 1.183.453.295.315.438.717.397 1.12h-1.156c.026-.476-.15-.716-.53-.723a.73.73 0 0 0-.768.61c-.04.274.181.506.658.697.4.143.752.368 1.028.655.233.284.339.63.296.976-.024.411-.244.795-.61 1.06-.382.27-.87.406-1.363.38a1.829 1.829 0 0 1-1.297-.483 1.48 1.48 0 0 1-.442-1.197h1.165a.861.861 0 0 0 .137.644.656.656 0 0 0 .525.195.73.73 0 0 0 .5-.172.691.691 0 0 0 .229-.42zm4.937-.83h-1.754l-.267 1.388h2.077l-.15.878h-3.207l.995-5.233h3.203l-.173.882h-2.064l-.237 1.235h1.758zm4.692.493a1.935 1.935 0 0 1-.692 1.308 2.166 2.166 0 0 1-1.48.461 1.644 1.644 0 0 1-1.188-.446 1.716 1.716 0 0 1-.433-1.205 2.694 2.694 0 0 1 .03-.526l.147-.843c.068-.61.35-1.187.805-1.65a2.126 2.126 0 0 1 1.54-.557 1.65 1.65 0 0 1 1.236.469c.317.386.47.859.432 1.334H79.66v-.347c0-.381-.216-.59-.622-.602a.887.887 0 0 0-.744.301c-.22.308-.347.662-.368 1.026l-.142.877c-.04.278-.06.461-.06.549-.027.503.172.762.6.762a.884.884 0 0 0 .64-.187 1.25 1.25 0 0 0 .333-.728l1.112.004zm4.601-3.46l-.645 3.542a1.962 1.962 0 0 1-.64 1.25 1.978 1.978 0 0 1-1.369.437 1.593 1.593 0 0 1-1.203-.467 1.469 1.469 0 0 1-.314-1.22l.645-3.542h1.087l-.628 3.545v.302a.433.433 0 0 0 .129.376c.102.1.248.15.396.137a.765.765 0 0 0 .57-.177c.16-.181.253-.404.269-.638l.64-3.545h1.063zm2.03 3.32h-.566l-.354 1.913h-1.11l.996-5.232h1.687c.433-.01.852.145 1.156.43.282.31.407.717.342 1.118-.016.65-.435 1.233-1.076 1.497l.561 2.128v.059h-1.19l-.447-1.913zm-.401-.878h.582a.794.794 0 0 0 .637-.294c.166-.23.246-.506.228-.783 0-.314-.16-.479-.447-.498h-.71l-.29 1.575zm6.933.525h-1.754l-.268 1.388h2.082l-.168.878h-3.207l.996-5.233h3.202l-.168.882H92.22l-.238 1.235h1.759z"/><path d="M93.406 19.871l1-5.22h1.405c.375 0 .741.103 1.05.297.29.195.506.469.616.782.125.363.158.747.098 1.123l-.124.782a2.737 2.737 0 0 1-.833 1.65 2.407 2.407 0 0 1-1.657.598l-1.555-.012zm1.943-4.34l-.657 3.464h.277c.336.018.665-.094.906-.308.25-.287.398-.636.427-1.001l.132-.845c.031-.2.046-.4.043-.602a.742.742 0 0 0-.2-.528.765.765 0 0 0-.53-.184l-.398.004zM55.45 23.902h-1.431l-.863 4.354H51.98l.858-4.354h-1.412l.174-.879h4.024z" fill="#FFF"/><path d="M56.614 26.337h-.564l-.36 1.915h-1.116l.98-5.228h1.696a1.61 1.61 0 0 1 1.162.432c.284.31.409.717.343 1.118-.014.645-.424 1.225-1.056 1.496l.564 2.127v.059h-1.196l-.453-1.92zm-.424-.88h.585a.798.798 0 0 0 .64-.298c.168-.23.248-.507.23-.785 0-.314-.162-.482-.45-.502h-.708l-.297 1.585zm5.603 1.72H60.38l-.466 1.071h-1.142l2.538-5.225h.962l.698 5.233h-1.085l-.092-1.079zm-1.03-.882h.946l-.151-1.852-.794 1.852zm7.435 1.961h-1.186l-1.07-3.473-.71 3.473H64.02l1.074-5.233h1.185l1.08 3.477.7-3.477h1.208zm3.634-1.458a.56.56 0 0 0-.088-.432 1.266 1.266 0 0 0-.53-.333 3.854 3.854 0 0 1-.671-.345c-.468-.27-.728-.735-.68-1.217.017-.272.124-.535.309-.758.186-.223.437-.4.728-.515.307-.121.643-.18.98-.174.455-.006.888.162 1.184.458.298.321.439.729.393 1.137H72.3c.03-.474-.146-.716-.53-.724a.76.76 0 0 0-.508.167.699.699 0 0 0-.256.443c-.04.27.177.5.654.694a2.71 2.71 0 0 1 1.029.648c.238.28.343.629.295.974-.021.408-.24.79-.605 1.053-.384.268-.87.403-1.364.38a1.819 1.819 0 0 1-1.298-.478 1.46 1.46 0 0 1-.442-1.194h1.166a.87.87 0 0 0 .133.64.669.669 0 0 0 .53.194.71.71 0 0 0 .494-.167.713.713 0 0 0 .234-.451z" fill="#FFF"/><path d="M75.448 27.177h-1.422l-.465 1.071h-1.145l2.547-5.225h.95l.7 5.233h-1.089l-.076-1.079zm-1.037-.882h.961l-.148-1.852-.813 1.852zm7.055.192c-.04.495-.285.96-.69 1.308a2.19 2.19 0 0 1-1.486.457 1.627 1.627 0 0 1-1.192-.446 1.731 1.731 0 0 1-.433-1.201 3.127 3.127 0 0 1 .03-.53l.147-.839c.07-.612.353-1.19.81-1.654a2.124 2.124 0 0 1 1.54-.557c.468-.02.922.15 1.23.461.318.385.471.856.434 1.33h-1.149v-.342c0-.394-.208-.596-.624-.607a.918.918 0 0 0-.745.302 1.99 1.99 0 0 0-.369 1.025l-.143.877a7.424 7.424 0 0 0-.06.55c-.026.503.177.762.606.78a.904.904 0 0 0 .646-.178c.194-.209.31-.464.334-.732l1.114-.004zm4.41-2.585h-1.429l-.857 4.354h-1.18l.858-4.354h-1.407l.179-.879h4.02zm1.299 4.354h-1.116l.984-5.233h1.115zm2.665-.002a1.69 1.69 0 0 1-1.19-.44 1.704 1.704 0 0 1-.477-1.19 2.479 2.479 0 0 1 0-.531l.145-.85a3.32 3.32 0 0 1 .426-1.204 2.1 2.1 0 0 1 .814-.765 2.289 2.289 0 0 1 1.104-.248c.465-.026.918.139 1.231.447.306.352.469.786.46 1.232a2.65 2.65 0 0 1-.033.558l-.128.765a2.816 2.816 0 0 1-.797 1.652c-.397.39-.968.6-1.556.574zm1.354-3.022c.027-.185.042-.371.047-.558 0-.51-.208-.777-.626-.803a.893.893 0 0 0-.759.317 2.119 2.119 0 0 0-.4 1.048l-.12.86c-.027.18-.039.362-.034.544 0 .49.23.742.644.765a.896.896 0 0 0 .733-.295c.227-.3.363-.648.396-1.01l.12-.868zm5.34 3.024h-1.18l-1.075-3.473-.71 3.473h-1.213l1.066-5.233h1.185l1.079 3.477.71-3.477h1.208zm4.781-16.744H48.764a.529.529 0 0 1-.487-.524c0-.272.211-.499.487-.523h52.551a.529.529 0 0 1 .487.523c0 .273-.211.5-.487.524zm-2.141 20.93H46.707a.526.526 0 0 1-.529-.523c0-.29.237-.524.53-.524h52.466c.292 0 .529.235.529.524a.526.526 0 0 1-.529.523z" fill="#FFF"/><path d="M103.04 31.603l2.636-19.103a3.285 3.285 0 0 0-3.251-3.738H48.439l51.332 25.673a3.28 3.28 0 0 0 3.268-2.832z" opacity=".5" fill="#FFF"/><path d="M43.671 32.851l3.395-24.623a1.54 1.54 0 0 0-1.138-1.691L27.164 1.689a9.67 9.67 0 0 0-4.815 0L3.589 6.537a1.538 1.538 0 0 0-1.138 1.275v.412l37.63 29.125a5.645 5.645 0 0 0 3.59-4.498z" opacity=".5" fill="#00579B"/><path d="M23.85 40.814a3.933 3.933 0 0 1-1.421-.262l-11.86-4.506a5.458 5.458 0 0 1-3.469-4.35L4.217 10.73A1.95 1.95 0 0 1 5.67 8.575l4.712-1.228a.658.658 0 0 1 .632.173.65.65 0 0 1-.302 1.088L6 9.838a.656.656 0 0 0-.486.72l2.884 20.965a4.158 4.158 0 0 0 2.64 3.31l11.86 4.506c.613.234 1.29.234 1.903 0l5.788-2.212a.662.662 0 0 1 .853.381.656.656 0 0 1-.383.848L25.27 40.56a3.933 3.933 0 0 1-1.421.254z" fill="#FFF"/><path d="M16.28 23.557a1.694 1.694 0 0 0-.402-1.244 4.62 4.62 0 0 0-1.453-.858 6.732 6.732 0 0 1-2.767-1.763 3.625 3.625 0 0 1-.844-2.393 3.396 3.396 0 0 1 1.145-2.68 4.246 4.246 0 0 1 2.915-1.011 4.274 4.274 0 0 1 2.1.53 3.51 3.51 0 0 1 1.418 1.448 4.43 4.43 0 0 1 .498 2.124h-2.574a2.258 2.258 0 0 0-.401-1.41 1.331 1.331 0 0 0-1.085-.502 1.357 1.357 0 0 0-1.056.414c-.266.31-.401.716-.377 1.129 0 .37.144.724.401.982.44.395.947.705 1.494.913a6.346 6.346 0 0 1 2.723 1.717c.58.724.882 1.644.847 2.584a3.48 3.48 0 0 1-1.048 2.695 4.13 4.13 0 0 1-2.891.97 4.818 4.818 0 0 1-2.257-.526 3.842 3.842 0 0 1-1.607-1.505 4.51 4.51 0 0 1-.562-2.323h2.594a2.588 2.588 0 0 0 .43 1.66c.372.377.886.566 1.406.513.905.009 1.356-.48 1.353-1.464zm10.495.013a1.697 1.697 0 0 0-.402-1.246 4.698 4.698 0 0 0-1.457-.86 6.732 6.732 0 0 1-2.768-1.765 3.631 3.631 0 0 1-.843-2.395 3.393 3.393 0 0 1 1.149-2.683 4.223 4.223 0 0 1 2.911-1.013 4.27 4.27 0 0 1 2.105.532c.6.328 1.093.832 1.417 1.449.34.653.511 1.385.498 2.126h-2.574a2.263 2.263 0 0 0-.401-1.412 1.327 1.327 0 0 0-1.085-.502 1.357 1.357 0 0 0-1.056.415 1.594 1.594 0 0 0-.378 1.113 1.4 1.4 0 0 0 .422.984c.44.395.947.705 1.494.913a6.346 6.346 0 0 1 2.723 1.72 3.91 3.91 0 0 1 .847 2.586 3.468 3.468 0 0 1-1.064 2.699 4.115 4.115 0 0 1-2.891.972 4.814 4.814 0 0 1-2.258-.528 3.807 3.807 0 0 1-1.606-1.507 4.48 4.48 0 0 1-.566-2.309h2.606A2.595 2.595 0 0 0 24 24.52c.371.379.886.567 1.405.515.916.008 1.373-.48 1.37-1.466zm6.315 1.363h4.692v2.276h-7.346V13.605h2.676z" fill="#FFF"/><path d="M36.36 36.628a.653.653 0 0 1-.234-1.261l1.129-.436a4.148 4.148 0 0 0 2.631-3.318l2.874-21.02a.653.653 0 0 0-.48-.722l-15.912-4.14a7.555 7.555 0 0 0-3.757 0l-6.05 1.577a.653.653 0 1 1-.33-1.265l6.052-1.577a8.827 8.827 0 0 1 4.413 0L42.612 8.61a1.959 1.959 0 0 1 1.45 2.16l-2.874 21.02a5.458 5.458 0 0 1-3.449 4.361l-1.129.435a.652.652 0 0 1-.25.042z" fill="#FFF"/><path d="M24.663 33.488H18.6c-.37 0-.686.23-.748.545-.061.315.15.622.5.726l6.059 1.834a.92.92 0 0 0 .5 0l6.064-1.834c.35-.104.562-.412.5-.728-.063-.315-.382-.545-.753-.543h-6.059z" fill="#44B3E6"/></g></svg>