<svg viewBox="0 0 89 130" xmlns="http://www.w3.org/2000/svg"><g fill="none"><rect fill="#D1D3D4" x="1.753" width="85.211" height="129.923" rx="8.279"/><rect fill="#6D6E71" x="5.148" y="3.013" width="78.421" height="121.733" rx="6.335"/><rect fill="#FFF" x="7.913" y="5.174" width="72.891" height="117.411" rx="6.335"/><path d="M1.753 23.926V12.093c-.968 0-1.753.785-1.753 1.753v8.327c0 .968.785 1.753 1.753 1.753zm85.211-4.625v11.834c.969 0 1.754-.785 1.754-1.754v-8.326c0-.969-.785-1.754-1.754-1.754zm-85.211 25V32.468C.785 32.468 0 33.253 0 34.22v8.327A1.753 1.753 0 0 0 1.753 44.3zm0 13.625V46.093c-.968 0-1.753.785-1.753 1.753v8.327a1.753 1.753 0 0 0 1.753 1.753z" fill="#D1D3D4"/><path d="M61.812 11.718H26.905a2.734 2.734 0 0 1-2.734-2.734V4.799h40.375v4.185a2.734 2.734 0 0 1-2.734 2.734z" fill="#6D6E71"/><circle fill="#00579B" cx="55.817" cy="7.301" r="1.292"/><rect fill="#414042" x="36.525" y="6.468" width="15.667" height="1.667" rx=".833"/><path d="M22.464 109.76h-6.833a1 1 0 0 1-1-1v-6.834a1 1 0 0 1 1-1h6.833a1 1 0 0 1 1 1v6.834a1 1 0 0 1-1 1zm-5.833-2h4.833v-4.834h-4.833v4.834z" fill="#263238"/><path d="M19.048 106.343a1 1 0 0 1-.754-.343l-4.708-5.395a1 1 0 0 1 1.507-1.315l3.867 4.432 6.81-9.744a1 1 0 1 1 1.639 1.146l-7.542 10.791a1 1 0 0 1-.82.428zm55.082 3.417H27.799a1 1 0 1 1 0-2H74.13a1 1 0 1 1 0 2z" fill="#263238"/><circle fill="#263238" cx="20.464" cy="46.093" r="2.917"/><rect fill="#263238" x="28.964" y="44.03" width="40.375" height="4.125" rx="2.063"/><rect fill="#263238" x="11.817" y="23.926" width="35.212" height="4.125" rx="2.063"/><rect fill="#263238" x="11.817" y="14.926" width="62.647" height="4.125" rx="2.063"/><circle fill="#263238" cx="20.464" cy="56.822" r="2.917"/><rect fill="#263238" x="28.964" y="54.76" width="40.375" height="4.125" rx="2.063"/><circle fill="#263238" cx="20.464" cy="67.551" r="2.917"/><rect fill="#263238" x="28.964" y="65.489" width="40.375" height="4.125" rx="2.063"/><path d="M76.025 81.82H12.692a1 1 0 0 1 0-2h63.333a1 1 0 0 1 0 2zm0-45.571H12.692a1 1 0 0 1 0-2h63.333a1 1 0 0 1 0 2z" fill="#00579B"/><path d="M38.078 118.939a2.187 2.187 0 1 1 0-4.375 2.187 2.187 0 0 1 0 4.375zm0-3.375a1.188 1.188 0 1 0 0 2.375 1.188 1.188 0 0 0 0-2.375zm7.011 3.375a2.187 2.187 0 1 1 0-4.375 2.187 2.187 0 0 1 0 4.375zm0-3.375a1.188 1.188 0 1 0 0 2.375 1.188 1.188 0 0 0 0-2.375zm7.011 3.375a2.187 2.187 0 1 1 0-4.375 2.187 2.187 0 0 1 0 4.375zm0-3.375a1.188 1.188 0 1 0 0 2.375 1.188 1.188 0 0 0 0-2.375z" fill="#263238"/><path d="M34.02 103.533a15.65 15.65 0 0 1 10.147-6.854l-1.077-1.4-4.05 7.335c-.314.57.068 1.527.824 1.436l4.298-.518-.675-1.629-2.01 1.716c-.811.691.097 1.716.927 1.594l11.516-1.695-1.077-1.4-.914 1.41c-.505.779.327 1.505 1.077 1.4l18.25-2.541-.735-1.743-2.338 1.636a.963.963 0 0 0 .482 1.777l.325.04c.768.094 1.12-.865.823-1.435l-.151-.29c-.567-1.09-2.213-.126-1.647.962l.151.29.824-1.434-.325-.04.48 1.777 2.339-1.636a.959.959 0 0 0-.735-1.743l-18.25 2.541 1.077 1.401.914-1.41c.503-.775-.325-1.512-1.077-1.401l-11.516 1.694.928 1.595 2.011-1.716a.962.962 0 0 0-.674-1.628l-4.298.518.823 1.435 4.05-7.336a.966.966 0 0 0-1.077-1.401 17.625 17.625 0 0 0-11.287 7.73c-.686 1.022.966 1.978 1.647.963z" fill="#00579B"/></g></svg>
