<svg viewBox="0 0 211 135" xmlns="http://www.w3.org/2000/svg"><g fill="none" fill-rule="evenodd"><rect fill="#BCBEC0" fill-rule="nonzero" x="13.33" width="183.674" height="126.5" rx="9.595"/><rect fill="#414042" fill-rule="nonzero" x="16.395" y="3.112" width="177.542" height="122.277" rx="7.504"/><rect fill="#FFF" fill-rule="nonzero" x="21.088" y="9.846" width="168.158" height="112.311" rx="7.504"/><rect fill="#B0D3D4" fill-rule="nonzero" x="49.297" y="61.102" width="111.4" height="2.204" rx="1.102"/><circle fill="#00579B" fill-rule="nonzero" cx="120.307" cy="62.204" r="5.645"/><circle fill="#FFF" fill-rule="nonzero" cx="120.307" cy="62.204" r="1.179"/><path d="M93.264 34.262v11.761a2.802 2.802 0 0 0 2.558 2.995h21.228l3.257 4.082 3.257-4.082h21.228a2.802 2.802 0 0 0 2.557-2.995V34.262a2.802 2.802 0 0 0-2.557-2.995h-48.97a2.802 2.802 0 0 0-2.558 2.995z" stroke="#263238" stroke-width=".834"/><rect fill="#00579B" fill-rule="nonzero" x="100.473" y="36.192" width="39.667" height="7.167" rx="3.583"/><rect fill="#263238" fill-rule="nonzero" x="39.184" y="69.182" width="20.226" height="5.047" rx="2.523"/><rect fill="#263238" fill-rule="nonzero" x="150.584" y="69.182" width="20.226" height="5.047" rx="2.523"/><circle fill="#939598" fill-rule="nonzero" cx="105.898" cy="6.5" r="1"/><path d="M139.53 94.681l-11.881-6.86a1.15 1.15 0 0 0-1.725.996v3.597H85.872v-3.597a1.15 1.15 0 0 0-1.725-.995l-11.881 6.86a1.862 1.862 0 0 0 0 3.225l11.881 6.86a1.15 1.15 0 0 0 1.725-.995v-3.598h40.052v3.597a1.15 1.15 0 0 0 1.725.996l11.881-6.86a1.862 1.862 0 0 0 0-3.226z" fill="#0377BE" fill-rule="nonzero"/><path d="M30.004 14.833h151m-151 102.334h151" stroke="#00579B" stroke-width="2" stroke-linecap="round"/><path d="M0 126.5h210.333v2.68a4.987 4.987 0 0 1-4.987 4.987H4.987A4.987 4.987 0 0 1 0 129.179V126.5z" fill="#A7A9AC" fill-rule="nonzero"/><path d="M82.766 126.5h44.8v1.064a2.936 2.936 0 0 1-2.935 2.936H85.703a2.936 2.936 0 0 1-2.937-2.936V126.5z" fill="#6D6E71" fill-rule="nonzero"/></g></svg>
