<svg viewBox="0 0 158 143" xmlns="http://www.w3.org/2000/svg"><g fill="none"><rect fill="#A7A9AC" x="11.019" y="7.361" width="107.403" height="133.675" rx="6.318"/><rect fill="#6D6E71" x="19.204" y="17.873" width="93.836" height="118.444" rx="4.861"/><path d="M101.41 133.675H5.994A5.994 5.994 0 0 1 0 127.681V5.994A5.994 5.994 0 0 1 5.994 0h90.242l11.167 13.239V127.68a5.994 5.994 0 0 1-5.993 5.994z" fill="#D1D3D4"/><path d="M96.236 0v9.995a3.026 3.026 0 0 0 3.026 3.026h8.141L96.236 0z" fill="#00579B"/><rect fill="#263238" x="28.369" y="10.966" width="44.663" height="5.528" rx="2.764"/><rect fill="#00579B" x="7.747" y="8.002" width="11.457" height="11.457" rx="1.897"/><path d="M98.855 28.514H7.747a.873.873 0 0 1 0-1.745h91.108a.873.873 0 0 1 0 1.745zm0 52.592H7.747a.873.873 0 0 1 0-1.746h91.108a.873.873 0 0 1 0 1.746z" fill="#FFF"/><rect fill="#263238" x="6.874" y="33.024" width="29.642" height="3.055" rx="1.528"/><rect fill="#263238" x="6.874" y="40.226" width="86.744" height="3.055" rx="1.528"/><rect fill="#263238" x="6.874" y="47.882" width="86.744" height="3.055" rx="1.528"/><rect fill="#263238" x="6.874" y="55.538" width="86.744" height="3.055" rx="1.528"/><rect fill="#263238" x="6.874" y="63.194" width="86.744" height="3.055" rx="1.528"/><rect fill="#263238" x="6.874" y="70.85" width="52.045" height="3.055" rx="1.528"/><circle fill="#263238" cx="12.593" cy="92.817" r="2.655"/><rect fill="#263238" x="19.804" y="90.999" width="31.606" height="3.637" rx="1.819"/><circle fill="#263238" cx="12.593" cy="106.784" r="2.655"/><rect fill="#263238" x="19.804" y="104.965" width="31.606" height="3.637" rx="1.819"/><circle fill="#263238" cx="12.593" cy="120.75" r="2.655"/><rect fill="#263238" x="19.804" y="118.931" width="31.606" height="3.637" rx="1.819"/><circle fill="#00579B" cx="93.293" cy="77.095" r="34.025"/><circle fill="#E6E7E8" cx="93.293" cy="77.095" r="29.213"/><rect fill="#00579B" transform="rotate(45 117.797 103.029)" x="115.547" y="96.439" width="4.5" height="13.18" rx="2.25"/><path d="M155.857 133.313l-35.967-30.936-1.372 1.372-1.372 1.373 30.935 35.966s3.444 3.9 7.56-.215c4.116-4.117.216-7.56.216-7.56z" fill="#00579B"/><path d="M96.51 57.065H72.038a29.149 29.149 0 0 0-7.072 12.874H96.51a6.437 6.437 0 1 0 0-12.874zm4.457 22.295h-36.79a29.038 29.038 0 0 0 4.127 12.874h32.663a6.437 6.437 0 0 0 0-12.874z" fill="#263238"/><circle fill="#FFF" cx="108.979" cy="77.095" r="9.251"/></g></svg>
