<svg viewBox="0 0 153 140" xmlns="http://www.w3.org/2000/svg"><g fill="none" fill-rule="evenodd"><rect fill="#BCBEC0" fill-rule="nonzero" x="8.476" width="143.973" height="128.566" rx="9.137"/><path d="M6.958 35.47h1.518v61.455H6.958A6.958 6.958 0 0 1 0 89.967v-47.54a6.958 6.958 0 0 1 6.958-6.958z" fill="#BCBEC0" fill-rule="nonzero"/><path d="M141.184 5.492H19.741a4.61 4.61 0 0 0-4.61 4.611v35.805h2.978a2.801 2.801 0 0 1 2.801 2.802v36.61a2.801 2.801 0 0 1-2.801 2.801H15.13v29.443a4.61 4.61 0 0 0 4.61 4.61h121.444a4.61 4.61 0 0 0 4.61-4.61V10.103a4.61 4.61 0 0 0-4.61-4.61z" fill="#808285" fill-rule="nonzero"/><rect fill="#414042" fill-rule="nonzero" x="21.607" y="10.806" width="117.866" height="107.2" rx="4.633"/><rect fill="#939598" fill-rule="nonzero" x="25.29" y="14.155" width="110.5" height="100.502" rx="4.633"/><path d="M5.47 42.175V90.22" stroke="#00579B" stroke-width="2.738" stroke-linecap="round" stroke-linejoin="round"/><circle fill="#BCBEC0" fill-rule="nonzero" cx="80.462" cy="59.352" r="30.867"/><circle fill="#FFF" fill-rule="nonzero" cx="80.462" cy="59.352" r="27.723"/><rect fill="#00579B" fill-rule="nonzero" x="79.284" y="78.024" width="2.512" height="7.606" rx="1.256"/><rect fill="#58595B" fill-rule="nonzero" transform="rotate(30 69.292 78.855)" x="68.036" y="75.052" width="2.512" height="7.606" rx="1.256"/><rect fill="#58595B" fill-rule="nonzero" transform="rotate(60 61.037 70.657)" x="59.781" y="66.854" width="2.512" height="7.606" rx="1.256"/><rect fill="#58595B" fill-rule="nonzero" transform="rotate(90 57.987 59.43)" x="56.731" y="55.627" width="2.512" height="7.606" rx="1.256"/><rect fill="#58595B" fill-rule="nonzero" transform="rotate(120 60.96 48.182)" x="59.703" y="44.379" width="2.512" height="7.606" rx="1.256"/><rect fill="#58595B" fill-rule="nonzero" transform="rotate(150 69.157 39.927)" x="67.901" y="36.124" width="2.512" height="7.606" rx="1.256"/><rect fill="#58595B" fill-rule="nonzero" transform="rotate(180 80.385 36.877)" x="79.129" y="33.074" width="2.512" height="7.606" rx="1.256"/><rect fill="#58595B" fill-rule="nonzero" transform="rotate(-150 91.633 39.849)" x="90.377" y="36.046" width="2.512" height="7.606" rx="1.256"/><rect fill="#58595B" fill-rule="nonzero" transform="rotate(-120 99.888 48.047)" x="98.632" y="44.244" width="2.512" height="7.606" rx="1.256"/><rect fill="#58595B" fill-rule="nonzero" transform="rotate(-90 102.938 59.274)" x="101.682" y="55.471" width="2.512" height="7.606" rx="1.256"/><rect fill="#58595B" fill-rule="nonzero" transform="rotate(-60 99.966 70.522)" x="98.71" y="66.719" width="2.512" height="7.606" rx="1.256"/><rect fill="#58595B" fill-rule="nonzero" transform="rotate(-30 91.767 78.777)" x="90.512" y="74.974" width="2.512" height="7.606" rx="1.256"/><circle fill="#00579B" fill-rule="nonzero" cx="80.753" cy="59.699" r="14.67"/><circle fill="#414042" fill-rule="nonzero" cx="116.592" cy="101.172" r="10.952"/><ellipse fill="#FFF" fill-rule="nonzero" cx="81.453" cy="101.45" rx="37.421" ry="4.338"/><circle fill="#FFF" fill-rule="nonzero" cx="116.592" cy="101.45" r="5.02"/><path d="M28.297 128.566h-6.845l.754 8.108a3.008 3.008 0 0 0 2.995 2.73h6.192a3.008 3.008 0 0 0 2.995-2.73l.754-8.108h-6.845zm104.331 0h-6.846l.754 8.108a3.008 3.008 0 0 0 2.996 2.73h6.192a3.008 3.008 0 0 0 2.995-2.73l.754-8.108h-6.845z" fill="#00579B" fill-rule="nonzero"/><path fill="#FFF" fill-rule="nonzero" d="M80.385 46.969l1.063 1.843 1.064 1.843h-4.255l1.064-1.843z"/></g></svg>
