<svg viewBox="0 0 182 220" xmlns="http://www.w3.org/2000/svg"><g fill="none"><path d="M21.9 118.143l-19.57-7.579a3.642 3.642 0 0 1-2.1-2.114 3.59 3.59 0 0 1 .198-2.96c2.281-4.245 5.772-11.614 6.597-18.28.876-7.096 4.775-14.987 7.022-19.06a3.677 3.677 0 0 1 4.549-1.632l19.714 7.635a3.643 3.643 0 0 1 2.09 2.085 3.591 3.591 0 0 1-.157 2.934 72.49 72.49 0 0 0-6.707 18.306 73.55 73.55 0 0 1-7.045 18.956c-.862 1.65-2.844 2.387-4.592 1.71z" fill="#9CCC65"/><ellipse fill="#346A34" cx="19.437" cy="91.888" rx="7.951" ry="7.952"/><path d="M32.731 80.27l-5.893-2.325a1.938 1.938 0 0 1-.497-3.306 1.902 1.902 0 0 1 1.893-.29l5.893 2.326a1.935 1.935 0 0 1 1.08 2.5 1.91 1.91 0 0 1-2.476 1.095zm-21.206 30.04l-5.897-2.326a1.936 1.936 0 0 1-1.078-2.499 1.911 1.911 0 0 1 2.474-1.098l5.898 2.326a1.936 1.936 0 0 1 1.082 2.5 1.911 1.911 0 0 1-2.479 1.097z" fill="#FFF"/><path d="M139.604 109.19c-19.077-27.602-31.657-34.035-31.657-34.035 3.065-4.278 0-7.27 0-7.27 4.147-3.429 0-7.11 0-7.11 7.567-4.065 10.82-8.36 12.12-11.83 1.288-3.438-13.662 3.508-25.091-7.097-11.43-10.605-26.38 3.66-25.09 7.098 1.299 3.469 4.551 7.764 12.119 11.83 0 0-2.606 3.62 1.542 7.05 0 0-4.608 3.05-1.542 7.329 0 0-12.58 6.433-31.658 34.035C31.27 136.79.85 217.35 94.976 217.35c94.125 0 63.705-80.56 44.628-108.16z" fill="#57C1EF"/><path d="M107.548 75.267c3.05-4.29 0-7.292 0-7.292 4.126-3.439 0-7.13 0-7.13 7.529-4.079 10.765-8.387 12.058-11.866 1.281-3.449-13.592 3.518-24.963-7.12-11.371-10.636-26.245 3.671-24.963 7.12 1.293 3.48 4.529 7.787 12.058 11.865 0 0-2.592 3.633 1.534 7.071 0 0-4.584 3.061-1.534 7.352 0 0-12.516 6.453-31.496 34.138-11.08 16.16-26 50.415-17.882 76.137l93.096-93.912c-11.132-12.86-17.908-16.363-17.908-16.363z" fill="#44B3E6"/><path d="M95.38 217.34c74.551 0 70.482-51.036 56.16-85.693L68.913 214.62a115.974 115.974 0 0 0 26.467 2.72zm13.682-150.191a4.026 4.026 0 0 0 3.48-1.988 3.94 3.94 0 0 0 0-3.976 4.026 4.026 0 0 0-3.48-1.988H83.54c-2.219 0-4.018 1.78-4.018 3.976 0 2.196 1.8 3.976 4.018 3.976a4.026 4.026 0 0 0-3.486 1.985 3.94 3.94 0 0 0 0 3.98A4.026 4.026 0 0 0 83.54 75.1h25.522a4.026 4.026 0 0 0 3.486-1.985 3.94 3.94 0 0 0 0-3.98 4.026 4.026 0 0 0-3.486-1.986z" fill="#00579B"/><path d="M130.055 51.181l-15.743-14.135a3.674 3.674 0 0 1 .025-5.497c3.678-3.225 9.62-8.992 12.792-15.036 3.375-6.432 9.888-12.55 13.47-15.625a3.7 3.7 0 0 1 4.88.061l15.86 14.241a3.676 3.676 0 0 1 .022 5.455 74.166 74.166 0 0 0-12.903 15.02 75.249 75.249 0 0 1-13.456 15.517 3.705 3.705 0 0 1-4.947 0z" fill="#9CCC65"/><ellipse fill="#346A34" cx="136.942" cy="25.622" rx="7.951" ry="7.952"/><path d="M153.952 18.015l-4.87-4.64c-.813-.776-.878-2.102-.145-2.962a1.908 1.908 0 0 1 2.8-.155l4.87 4.64c.813.776.878 2.102.146 2.963-.733.86-1.987.93-2.8.154zm-31.805 22.088l-4.87-4.64a2.172 2.172 0 0 1-.612-1.995c.147-.733.653-1.327 1.327-1.558a1.902 1.902 0 0 1 1.94.436l4.869 4.64c.813.776.879 2.102.146 2.963-.733.86-1.987.93-2.8.154z" fill="#FFF"/><path d="M65.865 45.966L46.83 54.465a3.59 3.59 0 0 1-2.968-.014 3.652 3.652 0 0 1-1.964-2.249c-1.421-4.646-4.217-12.377-8.376-17.713-4.427-5.678-7.31-14.07-8.634-18.568-.519-1.769.345-3.651 2.015-4.394L46.08 2.965a3.592 3.592 0 0 1 2.94 0 3.652 3.652 0 0 1 1.973 2.202 74.15 74.15 0 0 0 8.317 17.808 75.238 75.238 0 0 1 8.544 18.51c.57 1.789-.29 3.722-1.99 4.48z" fill="#9CCC65"/><ellipse fill="#346A34" cx="45.942" cy="28.273" rx="7.951" ry="7.952"/><path d="M46.556 9.734l-5.848 2.477a2.004 2.004 0 0 1-1.924-.198 1.822 1.822 0 0 1-.782-1.697 1.86 1.86 0 0 1 1.143-1.497l5.848-2.476a2.004 2.004 0 0 1 1.923.199c.558.39.856 1.037.782 1.696a1.863 1.863 0 0 1-1.142 1.496zm7.071 37.109l-5.851 2.477a2.006 2.006 0 0 1-1.924-.2 1.823 1.823 0 0 1-.783-1.696c.075-.659.51-1.23 1.143-1.497l5.851-2.477c.977-.41 2.117.014 2.548.949.431.935-.009 2.028-.984 2.444z" fill="#FFF"/><path d="M56.17 141.189l-20.727 3.653a3.72 3.72 0 0 1-2.916-.709 3.582 3.582 0 0 1-1.399-2.609c-.3-4.77-1.222-12.81-4.051-18.881-3.01-6.461-3.862-15.152-4.102-19.759-.092-1.81 1.202-3.407 3.02-3.724l20.882-3.681c1.02-.18 2.07.07 2.89.69a3.586 3.586 0 0 1 1.42 2.566 71.375 71.375 0 0 0 3.97 18.958 72.406 72.406 0 0 1 4.027 19.683c.138 1.841-1.164 3.487-3.015 3.813z" fill="#9CCC65"/><ellipse fill="#346A34" cx="41.524" cy="119.277" rx="7.951" ry="7.952"/><path d="M46.182 101.465l-6.016.998a1.935 1.935 0 0 1-1.74-.58 1.61 1.61 0 0 1-.326-1.682c.224-.574.762-.995 1.413-1.102l6.015-.999c.651-.11 1.316.11 1.743.578a1.61 1.61 0 0 1 .328 1.684c-.225.576-.766.996-1.417 1.103zm-3.53 37.991l-6.018.999a1.936 1.936 0 0 1-1.74-.58 1.61 1.61 0 0 1-.328-1.683c.224-.574.764-.995 1.414-1.102l6.018-.999a1.936 1.936 0 0 1 1.74.58 1.61 1.61 0 0 1 .327 1.682c-.224.575-.763.995-1.413 1.103z" fill="#FFF"/><path d="M179.913 97.752l-18.693 8.816a3.521 3.521 0 0 1-2.937.037 3.635 3.635 0 0 1-1.98-2.214c-1.483-4.618-4.377-12.297-8.58-17.558-4.473-5.598-7.463-13.935-8.848-18.408-.543-1.758.28-3.654 1.922-4.425l18.833-8.882a3.522 3.522 0 0 1 2.908-.049 3.634 3.634 0 0 1 1.988 2.167 74.388 74.388 0 0 0 8.523 17.653 75.485 75.485 0 0 1 8.759 18.352c.592 1.777-.225 3.724-1.895 4.511z" fill="#9CCC65"/><ellipse fill="#346A34" cx="160.796" cy="80.402" rx="7.951" ry="7.952"/><path d="M161.435 61.796l-5.828 2.532a2.05 2.05 0 0 1-1.938-.163c-.569-.376-.88-1.01-.816-1.66.064-.65.492-1.22 1.124-1.492l5.829-2.531a2.048 2.048 0 0 1 1.934.165c.567.376.878 1.008.815 1.658-.063.65-.49 1.218-1.12 1.491zm6.185 37.11l-5.832 2.532a2.05 2.05 0 0 1-1.936-.166c-.567-.376-.878-1.008-.815-1.658.063-.65.49-1.218 1.12-1.492l5.832-2.532a2.049 2.049 0 0 1 1.935.166c.568.376.879 1.008.816 1.658-.063.65-.49 1.218-1.12 1.492z" fill="#FFF"/><path d="M131.438 217.113l-4.142-20.22a3.553 3.553 0 0 1 .655-2.87 3.66 3.66 0 0 1 2.611-1.426c4.823-.396 12.942-1.471 19.027-4.372 6.476-3.087 15.256-4.107 19.914-4.44 1.831-.13 3.474 1.103 3.835 2.877l4.172 20.37a3.554 3.554 0 0 1-.637 2.845 3.66 3.66 0 0 1-2.567 1.446 74.35 74.35 0 0 0-19.106 4.295 75.438 75.438 0 0 1-19.839 4.366c-1.86.174-3.554-1.065-3.923-2.871z" fill="#9CCC65"/><ellipse fill="#346A34" cx="151.961" cy="202.329" rx="7.951" ry="7.952"/><path d="M169.87 206.143l-1.09-6.01c-.181-1.003.402-1.982 1.303-2.184.9-.203 1.779.447 1.96 1.45l1.089 6.01c.182 1.004-.401 1.982-1.302 2.184-.901.203-1.779-.446-1.96-1.45zm-37.108-2.651l-1.088-6.009c-.182-1.004.401-1.982 1.302-2.185.901-.203 1.779.447 1.96 1.451l1.09 6.01c.117.649-.085 1.319-.531 1.757-.446.438-1.068.578-1.632.367-.563-.211-.983-.741-1.1-1.39zm15.47-27.669a3.73 3.73 0 0 1-3.718-3.536c-2.657-50.124-40.195-79.597-40.573-79.89a3.738 3.738 0 0 1 .847-6.411 3.719 3.719 0 0 1 3.694.49c1.657 1.277 40.637 31.895 43.474 85.415a3.732 3.732 0 0 1-3.724 3.932zm-65.387 34.458c-.123 0-.247-.006-.372-.018-16.221-1.628-28.212-7.39-35.639-17.13-6.112-8.35-8.864-18.756-7.698-29.099a3.794 3.794 0 0 1 2.34-2.97 3.693 3.693 0 0 1 3.7.575 3.84 3.84 0 0 1 1.36 3.546c-.028.204-1.736 12.93 6.273 23.36 6.123 7.974 16.351 12.732 30.4 14.142 1.984.2 3.466 1.947 3.369 3.973-.097 2.025-1.738 3.618-3.733 3.621z" fill="#FFF"/></g></svg>
