<svg viewBox="0 0 139 239" xmlns="http://www.w3.org/2000/svg"><g transform="translate(0 -1)" fill="none"><rect fill="#44B3E6" transform="rotate(-35.684 39.796 76.075)" x="20.803" y="46.189" width="37.987" height="59.774" rx="7.515"/><path fill="#00579B" d="M26.915 49.268l8.08-5.803 34.868 48.55-8.081 5.804z"/><path d="M43.639 103.847a1.64 1.64 0 0 1-2.276-.37l-4.883-6.736a1.606 1.606 0 0 1 .378-2.249 1.64 1.64 0 0 1 2.271.364l4.883 6.737a1.606 1.606 0 0 1-.373 2.254zM33.7 90.26a1.591 1.591 0 0 1-2.239-.372L13.864 65.06a1.64 1.64 0 0 1 .372-2.263 1.591 1.591 0 0 1 2.235.367L34.068 87.99a1.64 1.64 0 0 1-.367 2.27z" fill="#FFF"/><rect fill="#EF5451" transform="rotate(-31.864 105.822 65.208)" x="75.975" y="46.189" width="59.694" height="38.038" rx="7.515"/><path fill="#B72025" d="M72.416 69.035l50.698-31.513 5.26 8.46-50.699 31.514z"/><path d="M91.586 88.934a1.58 1.58 0 0 0 2.156.494l6.822-4.17c.731-.45.955-1.396.5-2.116a1.58 1.58 0 0 0-2.152-.497l-6.823 4.17a1.524 1.524 0 0 0-.503 2.119zm14.479-9.084a1.62 1.62 0 0 0 2.218.513l25.715-15.825c.491-.3.783-.837.766-1.408a1.593 1.593 0 0 0-.853-1.358 1.624 1.624 0 0 0-1.614.057l-25.715 15.826a1.585 1.585 0 0 0-.517 2.196z" fill="#FFF"/><path d="M134.16 82.333L87.41 129.25a2.075 2.075 0 0 0-.53.912l-13.909 50.355a2.067 2.067 0 0 1-1.99 1.52h-7.197a2.067 2.067 0 0 1-1.991-1.52l-13.91-50.355a2.075 2.075 0 0 0-.53-.912L.606 82.333a2.08 2.08 0 0 1-.448-2.26 2.066 2.066 0 0 1 1.91-1.28h130.631c.836 0 1.59.505 1.909 1.28a2.08 2.08 0 0 1-.448 2.26z" fill="#FAA629"/><path d="M134.157 82.333l-46.94 46.918a2.073 2.073 0 0 0-.533.912l-13.966 50.355a2.075 2.075 0 0 1-2 1.52h-7.225c-.933 0-1.75-.622-2-1.52l-4.512-16.27 10.4-42.222 43.253-43.234h22.056a2.075 2.075 0 0 1 1.467 3.54z" fill="#ED6D23"/><path d="M.603 82.349a2.102 2.102 0 0 1-.446-2.27 2.057 2.057 0 0 1 1.9-1.287h57.628l.01.002-31.302 31.697L.603 82.349z" fill="#F78C1E"/><path d="M85.924 218.68c0 11.774-8.707 21.32-19.446 21.32-10.74 0-19.446-9.546-19.446-21.32 0-9.457 12.541-25.315 17.48-31.194a2.567 2.567 0 0 1 1.966-.92c.756 0 1.474.336 1.965.92 4.94 5.879 17.48 21.737 17.48 31.194z" fill="#44B3E6"/><path d="M69.28 218.079a2.485 2.485 0 0 0-.552-1.711 5.175 5.175 0 0 0-1.938-1.173 39.974 39.974 0 0 1-2.561-1.118 8.903 8.903 0 0 1-2.023-1.312 5.16 5.16 0 0 1-1.302-1.725 5.631 5.631 0 0 1-.453-2.374 5.037 5.037 0 0 1 1.613-3.843 7.03 7.03 0 0 1 4.301-1.76v-2.912h2.25v2.967a6.37 6.37 0 0 1 4.067 2.077 6.364 6.364 0 0 1 1.479 4.327h-4.782a3.692 3.692 0 0 0-.566-2.208 1.88 1.88 0 0 0-1.613-.773c-.547-.03-1.08.18-1.45.573a2.273 2.273 0 0 0-.517 1.58 2.21 2.21 0 0 0 .595 1.622 5.88 5.88 0 0 0 1.91 1.145c.877.364 1.704.74 2.482 1.132a9.508 9.508 0 0 1 2.017 1.332 5.463 5.463 0 0 1 1.33 1.739c.339.751.503 1.567.48 2.387a5.13 5.13 0 0 1-1.535 3.851 6.692 6.692 0 0 1-4.18 1.739v2.774h-2.25v-2.788a7.28 7.28 0 0 1-4.732-2.063 6.429 6.429 0 0 1-1.648-4.603h4.767a3.546 3.546 0 0 0 .715 2.395c.512.562 1.26.865 2.03.82a2.031 2.031 0 0 0 1.514-.558c.386-.421.585-.975.552-1.539z" fill="#FFF"/><path d="M66.91 235.472c-8.476-.01-15.346-6.984-15.356-15.59a1.612 1.612 0 0 1 1.6-1.618c.88 0 1.596.723 1.6 1.617.001 4.35 2.257 8.378 5.938 10.604a12.004 12.004 0 0 0 12.013.25 1.579 1.579 0 0 1 1.6.04c.488.303.78.848.765 1.429a1.627 1.627 0 0 1-.838 1.385 15.197 15.197 0 0 1-7.321 1.883zM49.937 121.358a1.61 1.61 0 0 1-1.143-.474L14.04 86.083a1.62 1.62 0 0 1 .001-2.288 1.615 1.615 0 0 1 2.285-.002l34.756 34.802a1.62 1.62 0 0 1-1.144 2.763z" fill="#FFF"/><rect fill="#5E6BB2" transform="rotate(-16.141 40.7 34.415)" x="21.707" y="4.528" width="37.987" height="59.774" rx="7.515"/><path fill="#2D3079" d="M37.11 4.372l9.557-2.766 16.617 57.418-9.557 2.766z"/><path d="M35.034 60.617a1.586 1.586 0 0 1-1.961-1.07l-2.26-7.737a1.567 1.567 0 0 1 1.083-1.936 1.586 1.586 0 0 1 1.96 1.064l2.26 7.736a1.567 1.567 0 0 1-1.082 1.943zM30.48 45.219a1.628 1.628 0 0 1-2.015-1.11L19.961 14.75a1.628 1.628 0 0 1 3.126-.904l8.504 29.358a1.625 1.625 0 0 1-1.11 2.014z" fill="#FFF"/></g></svg>
