<svg viewBox="0 0 57 57" xmlns="http://www.w3.org/2000/svg"><g fill="none"><rect fill="#9CCC65" width="56.986" height="56.986" rx="7.623"/><rect fill="#568B3E" x="4.6" y="4.6" width="47.787" height="47.787" rx="6.392"/><path d="M28.493 45.744a2 2 0 0 1-2-2V18.07l-1.32 1.319a2 2 0 0 1-2.827-2.828l4.733-4.734a2 2 0 0 1 3.414 1.414v30.502a2 2 0 0 1-2 2z" fill="#FFF"/><path d="M52.386 10.992A6.392 6.392 0 0 0 45.994 4.6H31.417l20.97 20.97V10.991zM10.992 52.386h16.272L4.6 29.722v16.272a6.392 6.392 0 0 0 6.392 6.392z" fill="#346A34"/><path d="M46.875 24.972a2 2 0 0 1-2-2V10.028a2 2 0 1 1 4 0v12.944a2 2 0 0 1-2 2zM10.063 48.224a2 2 0 0 1-2-2v-5.835a2 2 0 1 1 4 0v5.835a2 2 0 0 1-2 2z" fill="#FFF"/></g></svg>