<svg viewBox="0 0 54 63" xmlns="http://www.w3.org/2000/svg"><g fill="none"><path fill="#863B96" d="M53.858 46.642V15.547L26.929 0 0 15.547v31.095l26.929 15.547z"/><path fill="#692C90" d="M49.164 43.932V18.257L26.929 5.42 4.694 18.257v25.675L26.929 56.77z"/><path fill="#4B2D87" d="M4.694 18.257l44.47 25.675V18.257L26.929 5.42z"/><path d="M20.43 17.456v6.27a1.238 1.238 0 0 0 1.29 1.239 7.225 7.225 0 0 0 3.388-.946 1.25 1.25 0 0 1 1.656.277 10.986 10.986 0 0 1 1.915 6.799 10.986 10.986 0 0 1-1.915 6.798 1.25 1.25 0 0 1-1.656.277 7.225 7.225 0 0 0-3.387-.945 1.238 1.238 0 0 0-1.292 1.239v6.27a1.25 1.25 0 0 0 1.349 1.239c9.817-.747 11.651-9.68 11.651-14.878 0-5.199-1.834-14.132-11.651-14.878a1.25 1.25 0 0 0-1.349 1.24z" fill="#FFF"/></g></svg>