<svg viewBox="0 0 58 64" xmlns="http://www.w3.org/2000/svg"><g fill="none"><path d="M57.175 8.282S40.182 17.672 28.672 0C17.162 17.671.17 8.282.17 8.282s-.382 26.73 0 30.118C2.759 61.345 28.672 64 28.672 64s25.914-2.655 28.503-25.6c.382-3.388 0-30.118 0-30.118z" fill="#44B3E6"/><path d="M52.935 13.45S38.47 21.444 28.672 6.4C18.874 21.443 4.41 13.45 4.41 13.45s-.326 21.057 0 23.941c2.203 19.532 24.262 21.792 24.262 21.792s22.059-2.26 24.263-21.792c.325-2.884 0-23.94 0-23.94z" fill="#0377BE"/><path d="M52.935 37.391c.325-2.884 0-23.94 0-23.94S38.47 21.443 28.672 6.4v52.782s22.059-2.26 24.263-21.792z" fill="#2D3079"/><path d="M46.399 20.429a10.799 10.799 0 0 1-6.788-6.789.592.592 0 0 0-1.113 0 10.799 10.799 0 0 1-6.788 6.789.592.592 0 0 0 0 1.112 10.799 10.799 0 0 1 6.788 6.789.592.592 0 0 0 1.113 0 10.799 10.799 0 0 1 6.788-6.789.592.592 0 0 0 0-1.112zm-8.366 15.907a4.808 4.808 0 0 1-3.022-3.023.263.263 0 0 0-.496 0 4.808 4.808 0 0 1-3.022 3.023.263.263 0 0 0 0 .495 4.808 4.808 0 0 1 3.022 3.022.263.263 0 0 0 .496 0 4.808 4.808 0 0 1 3.022-3.022.263.263 0 0 0 0-.495zm-11.237-6.433a6.457 6.457 0 0 1-4.06-4.06.354.354 0 0 0-.665 0 6.457 6.457 0 0 1-4.059 4.06.354.354 0 0 0 0 .665 6.457 6.457 0 0 1 4.06 4.06.354.354 0 0 0 .665 0 6.457 6.457 0 0 1 4.06-4.06.354.354 0 0 0 0-.665z" fill="#FFF"/></g></svg>